<?xml version="1.0" standalone="no"?>
<!DOCTYPE svg PUBLIC "-//W3C//DTD SVG 20010904//EN"
 "http://www.w3.org/TR/2001/REC-SVG-20010904/DTD/svg10.dtd">
<svg version="1.0" xmlns="http://www.w3.org/2000/svg"
 width="889.000000pt" height="1186.000000pt" viewBox="0 0 889.000000 1186.000000"
 preserveAspectRatio="xMidYMid meet">

<g transform="translate(0.000000,1186.000000) scale(0.100000,-0.100000)"
fill="#000000" stroke="none">
<path d="M4536 10741 c-3 -4 -17 -6 -31 -3 -14 2 -32 -1 -39 -8 -10 -7 -21 -8
-33 -3 -20 10 -101 9 -111 -1 -3 -4 4 -9 16 -13 25 -6 20 -23 -7 -23 -10 0
-21 8 -23 18 -6 22 -38 23 -64 1 -13 -11 -18 -11 -21 -1 -5 13 -74 17 -86 5
-4 -3 -19 -8 -35 -10 -66 -8 -100 -11 -139 -12 -28 -1 -43 -6 -43 -14 0 -7 -9
-20 -20 -30 -11 -9 -20 -24 -20 -33 0 -10 -7 -14 -22 -12 -15 2 -26 -5 -35
-22 -12 -23 -13 -24 -13 -4 0 25 -34 38 -60 24 -10 -5 -20 -6 -24 -3 -3 3 -6
-1 -6 -10 0 -10 7 -17 15 -17 8 0 15 5 15 10 0 6 7 10 15 10 13 0 13 -3 3 -20
-8 -13 -20 -19 -31 -16 -16 4 -17 0 -12 -26 5 -21 4 -28 -4 -24 -6 4 -11 2
-11 -4 0 -7 -12 -9 -30 -6 -16 2 -30 0 -30 -5 0 -5 -6 -9 -13 -9 -7 0 -18 -10
-26 -22 -12 -19 -11 -23 5 -35 16 -12 16 -13 1 -13 -9 0 -17 5 -17 10 0 6 -4
10 -10 10 -5 0 -9 -16 -7 -35 1 -27 6 -34 17 -29 8 3 5 -4 -7 -16 -13 -11 -23
-25 -23 -30 0 -11 -29 -40 -41 -40 -5 0 -9 10 -9 22 0 20 -1 21 -20 3 -11 -10
-18 -20 -16 -24 2 -3 -2 -12 -10 -19 -11 -10 -14 -10 -15 0 0 7 -4 3 -10 -10
-5 -13 -13 -20 -19 -17 -5 3 -10 0 -10 -8 0 -8 -6 -20 -14 -27 -8 -6 -16 -23
-18 -38 -2 -19 -11 -29 -33 -37 -16 -5 -34 -15 -38 -22 -11 -17 -56 -16 -63 1
-5 12 -14 11 -57 -4 -29 -10 -52 -24 -52 -32 0 -7 -10 -13 -22 -13 -13 0 -22
-4 -20 -8 3 -12 -31 -29 -43 -22 -14 9 -48 -12 -54 -33 -5 -16 -23 -21 -73
-25 -7 0 -13 -5 -13 -10 0 -5 -9 -7 -20 -4 -11 3 -20 1 -20 -5 0 -6 -7 -8 -15
-4 -8 3 -14 2 -14 -2 3 -20 -3 -30 -22 -35 -17 -5 -18 -3 -7 10 11 14 11 15
-7 6 -11 -6 -29 -21 -40 -34 -20 -22 -20 -22 0 -15 18 6 17 4 -4 -16 -16 -16
-25 -19 -28 -10 -6 17 -20 15 -20 -3 0 -8 9 -15 19 -15 10 0 18 -5 18 -10 0
-6 -3 -9 -7 -8 -18 6 -83 -58 -83 -80 0 -13 -4 -21 -9 -17 -5 3 -12 -4 -16
-15 -3 -11 -11 -20 -16 -20 -5 0 -9 -5 -9 -11 0 -6 -12 -21 -27 -33 -37 -31
-74 -101 -61 -114 7 -7 3 -12 -11 -17 -13 -4 -21 -15 -21 -30 0 -12 -7 -36
-15 -51 -8 -16 -15 -36 -15 -45 0 -9 -7 -22 -15 -29 -8 -7 -12 -16 -9 -21 3
-5 0 -9 -6 -9 -6 0 -8 -5 -4 -11 3 -6 -6 -23 -21 -39 -15 -16 -24 -33 -21 -39
4 -6 0 -24 -9 -41 -8 -16 -13 -30 -10 -30 4 0 0 -7 -7 -15 -34 -37 -38 -46
-66 -155 -5 -19 -14 -34 -19 -33 -18 4 -35 -57 -35 -122 -1 -33 -7 -69 -14
-80 -14 -23 -11 -98 5 -103 7 -2 5 -16 -4 -39 -8 -19 -12 -40 -8 -46 9 -15 5
-74 -7 -96 -7 -14 -7 -20 1 -23 9 -3 8 -17 0 -53 -7 -28 -14 -66 -15 -85 -2
-19 -7 -44 -11 -55 -6 -17 -4 -17 12 3 17 20 21 22 32 9 8 -10 8 -16 1 -19 -5
-1 -12 -23 -15 -47 -2 -23 -7 -56 -10 -72 -5 -23 -4 -28 8 -23 11 4 14 0 12
-13 -11 -48 -12 -186 -3 -258 13 -100 13 -95 4 -128 -4 -19 -3 -26 6 -25 7 2
12 -5 12 -14 -1 -10 4 -18 11 -18 7 0 15 -5 17 -11 3 -8 18 -9 44 -5 39 7 41
9 38 39 -7 72 -7 237 0 307 5 41 9 89 9 107 1 17 5 29 10 26 11 -7 8 12 -4 24
-8 8 -6 19 5 40 9 18 14 48 12 77 -3 37 0 46 10 42 8 -3 14 1 14 8 0 8 7 16
15 20 8 3 15 12 15 19 0 8 7 20 15 27 9 7 13 15 10 18 -2 3 7 15 22 28 33 28
39 74 9 66 -18 -5 -18 -4 -5 10 7 9 16 14 19 13 3 -2 12 0 19 4 10 7 11 13 2
27 -7 13 -10 14 -11 5 0 -8 -3 -11 -7 -8 -3 4 6 18 21 32 20 18 26 33 24 53
-2 16 -8 26 -16 24 -13 -2 12 38 53 87 11 13 15 22 10 18 -6 -3 -17 8 -24 24
-11 25 -10 36 5 75 15 39 15 47 3 55 -8 5 -9 9 -4 9 6 0 3 5 -5 10 -13 9 -13
12 3 21 15 9 16 12 2 25 -21 22 -19 37 6 31 18 -5 20 -2 14 24 -4 18 -2 36 5
45 7 8 14 22 15 32 2 24 16 55 29 65 8 6 7 10 -1 13 -10 4 -10 8 0 19 7 7 15
11 18 9 4 -2 9 9 12 24 3 16 20 43 36 61 17 18 38 48 47 66 8 18 23 41 33 51
9 11 20 27 24 37 4 10 11 15 17 12 5 -3 10 2 10 13 0 10 15 36 33 57 55 65
220 228 267 265 25 19 47 37 50 40 3 4 37 28 75 55 39 26 84 59 101 72 17 12
36 23 42 23 7 0 12 4 12 8 0 5 16 15 35 22 20 8 41 20 47 27 13 16 38 17 38 2
0 -6 -7 -9 -15 -5 -8 3 -15 2 -15 -3 0 -5 11 -12 25 -15 14 -4 23 -10 20 -15
-2 -5 2 -12 11 -15 8 -3 13 -2 10 3 -7 11 45 22 73 14 11 -3 21 -10 21 -16 0
-6 3 -8 6 -4 4 3 13 0 21 -8 8 -8 27 -15 43 -15 39 0 60 -9 60 -27 0 -8 -4
-12 -9 -9 -5 3 -14 -1 -21 -9 -10 -12 -7 -13 14 -9 32 6 42 -11 16 -29 -19
-13 -18 -15 27 -21 26 -3 59 -4 73 -1 13 2 27 -1 31 -7 6 -9 11 -9 22 1 10 8
17 9 22 1 9 -15 25 -12 25 5 0 14 3 13 25 -1 14 -9 22 -20 19 -25 -3 -6 5 -7
20 -3 21 5 32 1 51 -20 20 -22 28 -25 44 -16 13 7 22 7 26 0 3 -5 -2 -10 -12
-11 -16 0 -16 -1 2 -9 11 -4 30 -6 41 -3 12 2 25 0 29 -6 11 -19 97 -54 104
-42 12 18 68 -18 74 -48 7 -33 52 -58 73 -40 10 8 14 8 14 0 0 -6 8 -11 18
-12 10 0 12 -3 5 -6 -19 -7 -16 -27 7 -48 15 -14 20 -15 20 -4 0 11 2 11 8 2
4 -7 24 -15 43 -17 27 -4 40 0 53 16 13 15 21 17 29 9 6 -6 19 -11 28 -11 10
0 19 -6 22 -12 3 -10 7 -10 20 0 14 12 19 12 32 -2 9 -9 20 -16 25 -16 5 0 7
-16 6 -35 -2 -25 3 -40 20 -56 12 -11 27 -18 32 -15 5 3 20 -3 32 -14 14 -12
31 -18 42 -14 11 3 25 1 33 -6 8 -7 15 -7 19 -1 9 13 121 1 149 -16 6 -3 7 -1
3 5 -10 17 153 5 198 -15 36 -16 39 -16 51 0 7 9 17 17 22 17 5 0 26 15 45 33
93 86 109 97 143 97 46 0 71 10 53 21 -9 6 -7 9 10 9 12 0 22 -5 22 -12 0 -6
6 -3 14 8 8 10 18 16 22 12 4 -4 13 0 20 10 7 9 14 12 14 6 0 -6 16 -10 38 -9
35 1 37 3 38 35 0 21 6 35 15 38 10 2 10 1 2 -5 -8 -6 -7 -13 4 -28 13 -18 14
-17 8 23 -5 35 -3 42 11 42 10 0 14 -5 10 -15 -3 -8 -1 -15 3 -15 5 0 11 6 14
13 3 9 8 8 22 -3 16 -13 18 -13 12 0 -4 8 -10 23 -13 33 -4 11 -17 17 -36 17
-22 0 -29 4 -25 14 3 8 1 16 -6 19 -6 2 -3 6 7 10 9 4 15 3 12 -2 -3 -5 1 -11
8 -14 11 -4 16 3 18 26 2 26 7 31 23 29 33 -5 39 -5 58 3 14 6 20 2 24 -14 3
-12 20 -28 39 -36 19 -8 34 -19 34 -24 0 -6 5 -11 10 -11 23 0 160 -117 160
-137 0 -5 16 -24 35 -43 19 -18 32 -37 29 -42 -3 -4 -1 -8 5 -8 5 0 20 -18 32
-40 13 -22 28 -39 35 -36 7 2 11 -8 12 -26 0 -17 9 -40 20 -52 21 -24 36 -56
33 -71 -2 -5 0 -7 4 -3 15 15 55 -62 55 -105 0 -9 5 -17 11 -17 5 0 7 -5 3
-11 -3 -6 -1 -15 6 -19 7 -4 13 -28 14 -52 1 -30 5 -44 12 -41 7 2 15 -1 20
-8 4 -8 3 -10 -4 -5 -7 4 -12 3 -12 -3 0 -5 5 -13 10 -16 6 -3 10 -14 10 -23
0 -15 -2 -15 -10 -2 -5 8 -10 11 -10 5 0 -5 -12 4 -25 20 -19 23 -25 26 -25
13 0 -10 5 -18 10 -18 6 0 10 -5 10 -11 0 -5 -4 -8 -9 -5 -5 4 -7 -3 -4 -14 4
-15 9 -18 18 -10 10 8 13 3 11 -25 -1 -19 2 -35 7 -35 4 0 6 -10 4 -22 -2 -13
-2 -17 0 -10 3 7 9 10 14 7 5 -4 5 -15 -2 -27 -10 -18 -9 -20 4 -15 13 5 14 2
8 -16 -6 -16 -1 -31 20 -60 16 -22 26 -44 22 -50 -4 -6 0 -8 10 -4 10 3 17 2
17 -3 0 -6 -9 -10 -20 -10 -17 0 -19 -2 -8 -14 7 -8 15 -13 18 -13 3 1 6 -2 8
-8 2 -5 10 -18 19 -27 8 -9 12 -21 9 -27 -4 -6 5 -28 20 -50 14 -22 23 -44 20
-50 -4 -5 5 -22 19 -37 20 -22 24 -34 20 -63 -4 -27 -3 -31 4 -16 7 15 10 16
12 5 5 -34 4 -45 -2 -50 -4 -3 -5 -18 -2 -33 4 -18 8 -24 13 -17 10 17 28
-112 25 -187 -1 -34 1 -60 5 -58 4 3 8 -46 8 -109 l0 -114 -41 6 c-92 12 -198
38 -195 47 2 6 9 9 16 9 6 -1 12 3 12 8 0 7 -16 8 -42 5 -23 -3 -37 -3 -31 1
13 8 -3 35 -27 45 -12 4 -11 6 3 6 17 1 17 2 2 17 -12 13 -13 19 -4 24 9 6 8
15 -2 39 -8 17 -17 31 -21 31 -4 0 -9 12 -11 28 l-4 27 -2 -29 -1 -29 -41 42
c-23 23 -44 39 -47 36 -4 -3 0 -10 8 -15 10 -7 11 -10 3 -10 -7 0 -13 -12 -14
-27 0 -16 -3 -22 -6 -14 -3 8 -21 34 -39 57 -24 32 -34 39 -38 28 -5 -12 -14
-10 -50 15 -48 33 -120 45 -96 16 12 -15 6 -35 -12 -35 -6 0 -5 7 3 17 12 15
12 16 -3 10 -9 -3 -31 -2 -47 3 -24 7 -31 5 -31 -6 0 -8 -4 -14 -10 -14 -5 0
-10 5 -10 10 0 7 -6 7 -19 0 -14 -7 -22 -7 -26 1 -4 6 -13 8 -20 5 -8 -3 -16
0 -18 7 -3 9 -9 9 -23 1 -11 -6 -27 -10 -37 -8 -14 2 -18 -2 -15 -14 4 -15 -4
-18 -64 -18 -59 -1 -66 0 -51 12 15 11 15 13 3 14 -9 0 -21 -5 -27 -11 -8 -8
-17 -8 -32 1 -12 6 -27 7 -34 3 -6 -4 -15 -8 -19 -9 -5 -1 -11 -3 -15 -4 -5
-1 -15 -2 -25 -1 -9 1 -19 -3 -23 -8 -3 -6 -19 -8 -35 -4 -25 4 -30 2 -31 -13
0 -11 -3 -14 -6 -6 -2 6 -21 12 -40 12 -28 0 -34 -3 -29 -16 4 -11 1 -14 -12
-10 -9 2 -42 7 -73 11 -46 5 -58 3 -62 -9 -4 -9 -15 -16 -25 -16 -10 0 -22 -3
-26 -7 -3 -4 -17 -8 -29 -10 -12 -2 -24 -8 -25 -14 -3 -6 -8 -6 -15 0 -17 13
-67 2 -67 -16 0 -8 -4 -12 -9 -9 -5 3 -11 0 -14 -7 -3 -7 -23 -19 -45 -26 -30
-10 -39 -18 -35 -30 4 -9 3 -13 -2 -9 -8 8 -29 -9 -38 -32 -4 -12 -6 -11 -6 3
-1 16 -10 21 -28 15 -5 -2 -7 -7 -5 -11 1 -4 -11 -13 -28 -18 -16 -6 -30 -17
-30 -24 0 -8 -10 -12 -26 -10 -18 2 -24 -2 -20 -11 3 -8 1 -14 -3 -14 -5 0 -8
-16 -7 -35 2 -19 -1 -32 -5 -29 -5 2 -14 -4 -20 -15 -7 -10 -19 -17 -26 -14
-7 3 -13 -1 -13 -9 0 -9 -11 -27 -24 -41 l-24 -26 31 -4 c18 -3 -13 -4 -68 -3
-101 2 -161 17 -116 29 12 3 19 1 15 -4 -3 -5 7 -9 23 -9 22 0 25 2 13 10 -13
9 -13 10 0 11 10 0 8 3 -5 9 -17 7 -17 9 -2 9 9 1 17 6 17 12 0 7 -10 5 -25
-5 -23 -15 -26 -15 -45 4 -11 11 -17 20 -12 21 4 1 -4 5 -18 9 -25 8 -25 8 -2
9 13 1 20 5 17 11 -4 6 -11 7 -17 4 -8 -5 -9 3 -5 25 4 20 3 30 -3 26 -6 -3
-10 1 -10 9 0 19 -16 21 -23 4 -3 -7 -5 6 -5 30 0 24 -2 45 -5 48 -11 11 -87
-19 -88 -35 0 -10 -4 -6 -10 8 -19 47 -29 53 -57 30 l-26 -20 -13 23 c-7 13
-13 19 -13 13 0 -5 -4 -4 -9 4 -5 8 -22 15 -38 16 -16 1 -35 5 -42 10 -9 5
-12 4 -7 -3 3 -6 2 -13 -4 -17 -5 -3 -10 3 -10 14 0 12 -6 21 -14 21 -8 0 -17
6 -20 13 -4 9 -9 8 -17 -4 -12 -16 -15 -16 -46 0 -18 9 -31 21 -28 28 4 13
-30 28 -55 25 -13 -3 -13 -2 0 7 12 8 9 12 -13 20 -16 6 -30 11 -31 11 -2 0
-1 -12 2 -26 4 -24 2 -25 -18 -19 -13 4 -72 9 -132 10 -90 3 -110 1 -115 -12
-5 -12 -7 -12 -14 -1 -11 18 -262 19 -297 1 -29 -16 -42 -16 -42 -3 0 6 3 9 8
9 21 -4 24 2 7 15 -16 12 -25 11 -64 -6 -25 -11 -47 -15 -49 -10 -1 5 -16 -3
-32 -18 -26 -24 -35 -27 -65 -20 -20 5 -33 4 -29 -1 3 -5 -2 -9 -10 -9 -9 0
-16 -9 -16 -20 0 -21 24 -28 33 -10 3 6 4 5 3 -2 -2 -7 -14 -13 -28 -13 -14 0
-35 -8 -45 -18 -11 -9 -23 -14 -26 -11 -4 4 -9 -1 -13 -10 -3 -9 -12 -16 -18
-16 -7 0 -22 -10 -33 -22 -11 -13 -29 -28 -39 -34 -16 -9 -14 -10 14 -6 24 3
32 1 30 -9 -2 -10 7 -14 29 -14 40 0 56 -15 17 -17 -35 -1 -34 -1 -107 -17
-31 -7 -70 -14 -85 -16 -15 -2 -65 -12 -112 -23 -47 -11 -115 -25 -153 -32
-37 -7 -70 -17 -74 -24 -8 -12 -5 -130 3 -158 8 -27 -42 -24 -56 3 -7 11 -14
18 -17 16 -2 -3 0 -15 7 -26 13 -26 -4 -29 -36 -7 -29 20 -48 5 -42 -33 5 -36
7 -35 -37 -17 -19 8 -35 11 -35 5 0 -5 3 -9 8 -9 12 0 12 -64 -1 -72 -7 -5 -8
-8 -1 -8 7 0 11 -39 12 -110 1 -68 7 -118 14 -130 10 -16 10 -24 0 -40 -6 -11
-12 -27 -12 -35 0 -8 -4 -15 -9 -15 -5 0 -9 -10 -10 -22 -1 -49 -4 -59 -19
-53 -10 4 -12 0 -8 -10 3 -9 -1 -27 -10 -40 -24 -37 -1 -245 27 -245 6 0 8 -4
5 -9 -3 -5 1 -11 9 -15 17 -6 16 -8 16 87 0 37 5 67 10 67 5 0 9 7 9 15 0 8 9
15 20 15 11 0 20 7 20 16 0 8 3 13 8 11 4 -3 5 101 3 230 -2 129 0 258 3 287
6 47 10 53 39 64 18 6 42 9 53 6 15 -4 29 2 46 21 25 26 26 26 56 11 38 -19
50 -55 93 -271 39 -200 92 -387 125 -442 26 -44 58 -71 112 -92 17 -8 32 -18
32 -23 0 -5 4 -7 10 -3 5 3 26 -1 46 -10 41 -17 61 -22 149 -38 60 -10 79 -22
67 -41 -10 -18 -11 -59 -1 -77 6 -12 5 -20 -1 -24 -17 -11 0 -25 30 -25 36 0
39 5 44 73 4 46 2 57 -12 60 -32 9 43 7 158 -4 63 -5 166 -10 228 -11 61 -1
112 -5 112 -9 0 -9 20 -6 39 6 10 5 16 4 19 -3 5 -15 32 -16 32 -2 0 6 6 10
14 10 12 0 12 -5 3 -30 -12 -30 -22 -34 -81 -30 -23 1 -28 -2 -23 -14 4 -10 1
-16 -8 -16 -8 0 -15 -5 -15 -11 0 -5 5 -7 10 -4 6 3 13 -1 16 -9 3 -9 11 -13
16 -10 6 4 5 10 -3 16 -10 7 -8 8 6 3 34 -12 49 -11 50 5 1 17 36 15 48 -3 5
-9 9 -8 16 2 6 9 10 10 16 2 5 -9 10 -9 21 0 8 6 25 8 39 5 14 -4 25 -2 25 4
0 6 8 5 20 -2 17 -11 22 -10 30 2 6 10 10 11 10 3 0 -7 4 -13 10 -13 5 0 9 6
7 12 -1 7 9 14 22 16 15 2 21 0 17 -7 -10 -15 6 -14 39 3 17 9 22 16 13 19
-10 4 -10 6 1 6 20 1 67 53 74 83 4 15 25 36 55 55 39 24 62 51 113 134 36 57
71 119 78 137 7 17 17 32 22 32 5 0 9 5 9 11 0 6 13 29 28 52 16 23 35 58 42
77 8 19 20 39 27 43 7 5 11 12 8 18 -4 5 -2 9 4 9 5 0 13 9 16 21 4 12 12 18
21 15 14 -5 23 7 28 37 4 32 36 50 80 45 52 -6 125 -38 126 -55 0 -6 8 -14 18
-18 18 -6 60 -59 100 -126 13 -22 28 -39 33 -39 6 0 7 -5 4 -10 -4 -6 16 -45
43 -88 27 -42 57 -93 67 -112 10 -19 21 -37 24 -40 3 -3 18 -21 33 -40 40 -53
86 -100 157 -160 52 -44 72 -55 113 -60 27 -4 51 -3 54 2 3 5 10 5 16 2 18
-11 53 -14 223 -18 88 -2 171 -7 185 -11 59 -16 71 -17 85 -5 12 10 15 9 15
-4 0 -10 4 -15 9 -12 5 3 12 -1 15 -10 6 -15 8 -15 26 1 16 15 22 15 35 5 12
-10 15 -10 15 4 0 13 4 15 19 6 25 -13 68 2 74 27 4 14 5 13 6 -4 1 -18 7 -23
30 -23 17 0 31 6 35 16 5 13 18 16 66 12 50 -4 63 -1 77 14 15 17 15 20 3 28
-12 8 -9 10 10 11 17 1 19 3 8 6 -25 6 -22 18 9 47 18 17 31 22 37 16 15 -15
26 -12 26 9 0 13 14 24 48 37 26 10 49 19 52 20 44 10 105 57 134 103 14 21
34 69 45 108 22 73 28 98 58 243 15 70 24 91 51 117 28 28 38 28 33 0 -1 -4 6
-21 15 -38 8 -17 16 -44 16 -59 1 -16 4 -28 7 -27 3 1 7 -2 8 -6 1 -4 9 -15
18 -23 8 -9 15 -23 15 -33 0 -10 6 -18 14 -18 12 0 15 22 15 111 0 61 2 121 5
133 3 13 1 25 -4 28 -4 3 -8 27 -8 55 -1 27 -6 58 -12 70 -6 11 -8 20 -5 20 3
0 -1 11 -10 23 -14 21 -14 27 2 57 18 37 29 116 20 152 -6 24 -53 48 -93 48
-10 0 -35 5 -54 10 -40 11 -37 -10 -23 185 4 55 6 126 5 157 -1 31 2 59 7 62
5 4 5 21 -2 42 -7 22 -7 38 -1 42 11 8 11 28 0 59 -4 13 -1 33 7 50 8 16 12
45 9 68 -3 22 -4 72 -4 110 3 154 -9 293 -27 314 -12 14 -18 39 -19 81 -1 33
-6 69 -11 78 -5 10 -17 50 -27 90 -9 40 -21 72 -26 72 -4 0 -8 7 -8 16 0 8 -4
13 -9 10 -7 -5 -25 29 -32 62 0 4 -10 19 -21 35 -11 15 -17 27 -13 27 3 0 -6
17 -20 37 -26 39 -32 59 -15 48 14 -9 12 1 -3 17 -24 25 -78 105 -80 120 -2 8
-23 41 -49 75 -25 33 -57 80 -70 104 -12 24 -26 46 -30 47 -5 2 -8 9 -8 15 0
7 -9 18 -20 25 -12 7 -18 16 -16 21 3 4 -7 20 -22 33 -15 14 -40 42 -55 62
-17 22 -35 35 -43 32 -8 -3 -13 -2 -13 2 4 23 -4 32 -26 32 -14 0 -24 5 -23
10 3 10 -13 21 -80 56 -22 11 -35 26 -39 46 -7 35 -19 44 -28 20 -6 -16 -7
-16 -20 2 -10 13 -11 25 -4 43 13 34 -6 57 -39 48 -17 -4 -28 0 -37 12 -7 10
-21 18 -31 18 -9 0 -19 6 -22 14 -3 8 0 11 7 7 6 -4 11 -3 11 3 0 12 -80 49
-172 81 -38 13 -68 28 -68 32 0 5 -4 6 -10 3 -5 -3 -10 -3 -10 2 0 13 -72 58
-88 55 -18 -4 -44 18 -38 33 5 14 -22 40 -51 49 -10 3 -27 20 -37 37 -24 40
-94 74 -116 55 -9 -7 -29 -10 -50 -7 l-34 6 29 14 c17 7 25 16 18 18 -7 2 -28
-3 -48 -13 -31 -14 -40 -15 -63 -4 -15 8 -33 12 -39 11 -7 -1 -13 4 -13 12 0
12 -120 48 -157 47 -17 0 -29 0 -83 3 -25 1 -56 -2 -69 -7 -15 -5 -21 -5 -17
2 3 6 -9 12 -29 14 -19 2 -35 0 -35 -4 0 -4 -7 -8 -16 -8 -10 0 -14 5 -10 15
4 12 0 14 -19 9 -14 -3 -38 1 -56 10 -25 12 -35 13 -43 5 -8 -9 -8 -10 2 -5 6
4 12 2 12 -4 0 -6 -8 -9 -17 -7 -10 3 -35 8 -56 12 -21 3 -35 10 -32 16 4 5 4
9 1 9 -3 0 -7 -4 -10 -9z m-226 -81 c0 -5 -7 -10 -16 -10 -8 0 -12 5 -9 10 3
6 10 10 16 10 5 0 9 -4 9 -10z m1743 -491 c-7 -25 -10 -24 -15 5 -3 16 -1 23
7 19 7 -2 11 -13 8 -24z m-3343 -423 c0 -3 -4 -8 -10 -11 -5 -3 -10 -1 -10 4
0 6 5 11 10 11 6 0 10 -2 10 -4z m3160 -70 c0 -2 -7 -7 -16 -10 -8 -3 -12 -2
-9 4 6 10 25 14 25 6z m-947 -228 c3 -8 -4 -13 -19 -13 -22 0 -23 1 -7 13 9 6
18 12 19 12 1 0 4 -6 7 -12z m546 -11 c-2 -1 -12 -9 -22 -16 -15 -12 -17 -12
-11 3 3 9 13 16 22 16 8 0 13 -1 11 -3z m851 -1442 c15 -18 37 -20 42 -3 3 7
12 9 22 5 16 -6 16 -8 -3 -28 -13 -14 -27 -20 -40 -16 -12 3 -21 2 -21 -3 0
-10 70 -21 83 -13 5 3 3 9 -4 14 -10 6 -10 9 -2 9 19 0 27 -21 12 -31 -12 -8
-97 -2 -107 6 -2 2 2 13 8 26 11 19 10 25 -6 36 -10 7 -13 13 -7 13 6 0 16 -7
23 -15z m105 -15 c3 -5 1 -10 -4 -10 -6 0 -11 5 -11 10 0 6 2 10 4 10 3 0 8
-4 11 -10z m-135 -25 c0 -1 -9 -5 -20 -8 -12 -3 -20 0 -20 8 0 8 8 11 20 8 11
-3 20 -7 20 -8z m-1813 -87 c-3 -8 -6 -5 -6 6 -1 11 2 17 5 13 3 -3 4 -12 1
-19z m-1426 -70 c-11 -11 -13 -10 -8 5 4 11 1 17 -9 17 -8 0 -12 5 -8 11 4 7
11 6 22 -5 14 -13 14 -18 3 -28z m41 34 c12 -5 15 -11 8 -21 -7 -12 -11 -12
-24 -2 -29 24 -20 37 16 23z m79 -19 c-11 -5 -11 -7 0 -14 10 -6 8 -9 -8 -9
-14 0 -23 6 -23 15 0 9 9 15 23 14 12 0 16 -3 8 -6z m2492 0 c-7 -2 -19 -2
-25 0 -7 3 -2 5 12 5 14 0 19 -2 13 -5z m-1758 -29 c68 -8 83 -11 40 -9 -38 3
-203 8 -365 12 -227 6 -271 9 -190 13 144 8 383 0 515 -16z m1692 20 c-3 -3
-12 -4 -19 -1 -8 3 -5 6 6 6 11 1 17 -2 13 -5z m-2318 -8 c-12 -10 -59 -15
-59 -6 0 5 14 10 32 10 17 0 29 -2 27 -4z m2206 -6 c-3 -5 -18 -9 -33 -9 l-27
1 30 8 c17 4 31 8 33 9 2 0 0 -3 -3 -9z m48 3 c-7 -2 -19 -2 -25 0 -7 3 -2 5
12 5 14 0 19 -2 13 -5z m-2456 -19 c-3 -3 -12 -4 -19 -1 -8 3 -5 6 6 6 11 1
17 -2 13 -5z m2331 0 c-8 -7 -240 -55 -245 -50 -6 5 188 54 221 55 16 1 27 -2
24 -5z m-1924 -65 c-3 -6 6 -8 23 -6 15 2 33 0 39 -4 7 -6 16 -3 24 6 16 19
44 20 37 1 -7 -18 32 -29 50 -14 7 6 13 8 13 5 0 -3 3 -12 6 -21 5 -12 -1 -14
-30 -10 -20 2 -36 0 -36 -5 0 -12 29 -23 41 -15 5 3 9 -2 9 -10 0 -9 5 -16 11
-16 5 0 7 -4 4 -10 -3 -5 0 -10 7 -11 7 0 4 -4 -7 -8 -11 -5 -28 -4 -39 1 -13
7 -16 7 -12 -1 4 -6 3 -11 -3 -11 -5 0 -11 5 -13 11 -2 7 -12 7 -29 1 -14 -6
-65 -10 -113 -10 -47 1 -89 -2 -92 -5 -10 -9 -44 5 -44 19 0 12 -5 11 -25 -2
-14 -9 -28 -14 -32 -10 -3 3 -1 6 5 6 6 0 16 8 21 19 9 16 7 19 -14 19 -14 0
-22 -4 -19 -9 3 -5 0 -9 -5 -9 -23 0 -9 21 24 37 19 9 35 20 35 24 0 4 14 11
31 14 23 5 28 10 18 16 -18 11 -6 21 15 13 9 -4 15 -13 12 -20 -3 -8 -3 -14
-1 -14 8 0 48 24 63 38 15 13 36 6 26 -9z m3083 -31 c-3 -7 -5 -2 -5 12 0 14
2 19 5 13 2 -7 2 -19 0 -25z m-3414 1 c-8 -8 -13 -7 -18 2 -5 8 -4 10 3 5 7
-4 12 -2 12 5 0 7 3 9 7 6 4 -4 2 -12 -4 -18z m122 3 c-3 -3 -11 0 -18 7 -9
10 -8 11 6 5 10 -3 15 -9 12 -12z m-35 -6 c0 -11 -19 -15 -25 -6 -3 5 1 10 9
10 9 0 16 -2 16 -4z m1785 -11 c-16 -8 -37 -14 -45 -14 -8 0 -1 7 15 14 17 8
37 14 45 14 8 0 2 -7 -15 -14z m-2108 -21 c-3 -3 -12 -4 -19 -1 -8 3 -5 6 6 6
11 1 17 -2 13 -5z m11 -29 c2 -2 -4 -10 -13 -18 -13 -14 -13 -17 2 -32 23 -24
-4 -41 -29 -18 -10 9 -18 11 -18 5 0 -6 5 -14 10 -17 6 -3 10 -13 10 -21 0 -8
-5 -12 -10 -9 -7 4 -9 -2 -4 -19 4 -16 2 -26 -4 -26 -6 0 -13 10 -15 23 -2 12
-2 6 0 -13 3 -19 5 -54 4 -77 -2 -42 -1 -43 29 -43 23 0 30 -4 30 -20 0 -12
-7 -20 -17 -20 -15 0 -16 -2 -3 -10 10 -6 11 -10 3 -10 -16 0 -16 -30 0 -50
15 -19 48 -25 57 -10 5 8 10 7 19 -3 9 -12 8 -18 -4 -30 -23 -24 -19 -38 10
-31 15 4 25 2 25 -5 0 -6 11 -11 25 -11 22 0 25 -4 25 -35 0 -28 5 -37 30 -50
29 -15 30 -15 30 5 0 13 7 20 20 20 11 0 20 -4 20 -10 0 -5 -7 -10 -15 -10 -8
0 -15 -5 -15 -11 0 -5 4 -8 9 -5 10 7 23 -19 14 -28 -4 -3 -15 -6 -25 -6 -10
0 -18 -5 -18 -11 0 -5 4 -8 9 -5 5 3 11 -1 15 -9 3 -9 12 -12 23 -9 10 3 14 2
8 -3 -13 -11 -15 -43 -3 -43 6 0 19 -9 29 -21 12 -14 24 -19 37 -15 16 6 19 3
14 -19 -3 -20 0 -25 15 -25 11 0 23 -3 27 -7 4 -5 11 -8 14 -9 31 -2 71 -17
66 -25 -8 -14 9 -11 33 6 18 13 24 13 35 2 16 -16 67 -28 73 -16 3 4 19 4 35
-1 22 -6 32 -5 38 6 7 12 12 12 41 -2 31 -16 33 -15 47 5 18 26 50 27 77 4 11
-10 18 -13 14 -7 -3 6 5 16 19 23 29 13 26 3 -9 -36 -11 -13 -16 -23 -10 -23
6 0 20 -3 30 -6 14 -5 15 -4 4 4 -28 20 -4 42 43 40 30 -2 51 3 64 15 10 9 24
17 30 17 7 0 12 5 12 12 0 6 3 9 6 5 4 -3 21 5 39 18 17 14 35 22 38 18 4 -3
7 2 7 11 0 12 5 16 15 12 9 -3 19 3 25 14 6 11 17 20 24 20 19 0 76 30 76 40
0 5 10 8 23 8 47 -3 77 2 77 13 0 16 31 38 53 39 9 0 17 4 17 9 0 12 24 8 28
-4 11 -35 -40 -230 -76 -285 -38 -60 -146 -131 -221 -146 -17 -4 -31 -10 -31
-14 0 -10 -169 -29 -296 -33 -73 -3 -103 0 -112 10 -14 15 -36 18 -28 4 7 -11
-22 -23 -36 -15 -6 4 -5 10 3 15 11 7 11 9 -2 9 -8 0 -20 -5 -27 -12 -9 -9
-12 -9 -12 0 0 8 -15 11 -42 11 l-43 -2 40 -7 c38 -7 36 -7 -20 -9 -71 -1
-273 17 -289 26 -5 4 -22 8 -35 9 -69 8 -210 53 -167 54 12 0 1 10 -28 25
-106 56 -159 165 -206 425 -15 80 -22 336 -10 358 4 10 14 31 20 49 7 20 21
34 36 37 14 4 22 11 18 17 -9 15 28 39 50 33 12 -4 16 -2 12 5 -5 7 3 7 26 -1
18 -6 34 -12 36 -13z m3752 15 c0 -5 -2 -10 -4 -10 -3 0 -8 5 -11 10 -3 6 -1
10 4 10 6 0 11 -4 11 -10z m-685 -17 c17 -4 36 -6 43 -4 6 1 12 -3 12 -9 0 -5
10 -10 23 -10 26 -1 62 -25 49 -34 -5 -3 -23 -1 -40 4 -18 5 -34 5 -37 0 -5
-8 -43 -5 -72 5 -7 2 -13 -1 -13 -6 0 -6 -9 -9 -20 -6 -11 3 -22 1 -25 -3 -4
-7 -84 -7 -147 -1 -5 1 -8 6 -8 12 0 5 5 7 10 4 6 -4 9 -3 8 2 -4 12 29 56 39
50 4 -2 17 -1 28 3 21 9 99 5 150 -7z m697 -17 c12 3 17 1 16 -6 -5 -23 19
-21 30 2 7 13 11 16 11 8 -1 -8 -1 -20 0 -26 2 -17 37 -54 52 -54 12 0 12 -2
0 -9 -10 -7 -11 -15 -3 -37 6 -18 11 -22 11 -11 1 9 9 17 19 17 11 0 13 -3 5
-8 -7 -5 -9 -21 -4 -47 3 -22 6 -51 5 -65 -12 -138 -22 -225 -30 -255 -1 -5
-8 -37 -14 -70 -16 -81 -80 -210 -129 -263 -22 -23 -44 -41 -48 -40 -4 1 -33
-6 -63 -17 -30 -10 -60 -20 -66 -21 -6 -1 -27 -5 -45 -8 -28 -5 -30 -4 -11 4
12 5 22 16 22 25 0 16 -12 18 -48 9 -19 -5 -22 -12 -18 -30 5 -20 2 -24 -16
-25 -13 0 -32 -3 -43 -5 -11 -3 -59 -6 -107 -7 -47 -1 -84 -5 -81 -9 4 -8 -16
-9 -252 -11 -205 -2 -465 23 -465 45 0 4 -6 8 -14 8 -8 0 -21 7 -30 15 -8 9
-19 16 -23 16 -25 3 -89 80 -123 148 -48 95 -58 147 -29 147 10 0 19 -4 19 -9
0 -4 5 -5 10 -2 6 3 10 1 10 -4 0 -6 8 -11 18 -11 9 0 30 -7 46 -15 15 -8 37
-15 47 -15 11 0 19 -7 19 -15 0 -8 7 -15 16 -15 9 0 23 -8 30 -17 13 -17 13
-17 14 0 0 16 2 16 30 2 28 -14 32 -14 46 0 18 17 44 20 44 4 0 -5 -4 -7 -10
-4 -5 3 -10 -1 -10 -10 0 -10 5 -13 12 -9 8 5 9 0 6 -14 -4 -12 -2 -22 3 -22
5 0 9 6 9 14 0 9 7 12 20 9 14 -4 20 0 21 13 1 11 5 3 9 -16 7 -31 7 -32 9 -7
1 31 21 38 21 7 0 -15 7 -20 25 -20 14 0 25 5 25 11 0 11 24 39 34 39 3 0 3
-7 0 -15 -4 -8 -4 -15 -1 -15 2 0 24 7 47 15 48 17 205 21 195 5 -3 -5 0 -8 7
-5 24 10 148 12 148 3 0 -5 -4 -6 -10 -3 -5 3 -10 1 -10 -4 0 -6 7 -11 15 -11
8 0 15 7 15 16 0 8 4 13 9 9 5 -3 12 -1 16 5 4 6 10 8 14 6 4 -3 17 3 27 12
19 18 54 18 54 1 0 -5 12 -9 26 -9 14 0 23 4 19 10 -3 6 -2 10 4 10 5 0 13 -4
16 -10 4 -6 11 -5 19 3 12 10 12 13 0 20 -8 4 -14 17 -14 28 0 13 4 18 12 13
8 -5 9 -2 5 9 -4 11 -1 17 8 17 15 0 19 12 15 40 -1 8 1 12 5 8 4 -4 16 -3 27
3 15 8 22 7 31 -5 11 -15 14 -15 29 4 10 11 13 20 8 20 -5 0 -9 18 -7 40 2 38
20 54 30 28 4 -8 6 -7 6 4 1 9 -5 19 -11 21 -8 3 -6 6 5 6 10 1 17 7 16 14 -1
6 -1 19 0 27 1 13 2 13 11 0 7 -11 10 -5 10 24 0 23 6 43 15 50 9 6 18 25 20
41 4 23 3 26 -5 15 -9 -13 -11 -13 -20 0 -7 11 -5 17 7 21 9 3 17 18 19 34 2
15 8 31 14 35 7 4 11 11 10 16 -1 5 4 10 11 13 8 2 10 -2 6 -13 -4 -9 -3 -14
2 -11 5 3 11 0 14 -7 2 -7 3 -5 2 4 -2 10 1 21 6 24 12 7 11 44 -1 44 -5 0
-10 5 -10 10 0 6 8 10 18 8 10 -2 16 2 14 11 -2 10 4 12 23 7 14 -4 25 -2 25
4 0 5 -17 11 -37 11 -24 1 -29 3 -15 6 20 4 20 6 7 19 -24 24 -17 37 7 14 13
-12 29 -18 40 -14z m-2952 3 c13 -9 13 -10 -2 -5 -10 3 -18 -1 -21 -12 -3 -12
-5 -11 -6 6 -1 24 6 27 29 11z m2885 1 c3 -5 1 -10 -4 -10 -6 0 -11 5 -11 10
0 6 2 10 4 10 3 0 8 -4 11 -10z m-3675 -25 c0 -8 -4 -15 -9 -15 -13 0 -22 16
-14 24 11 11 23 6 23 -9z m700 -58 c20 -17 25 -28 19 -38 -7 -12 -9 -12 -9 1
-1 13 -2 13 -13 0 -9 -11 -35 -15 -102 -16 -49 -1 -112 -5 -140 -9 -27 -4 -76
-9 -109 -11 -34 -2 -63 -9 -70 -17 -6 -8 -26 -20 -43 -27 -18 -7 -33 -17 -33
-22 0 -5 -4 -7 -9 -4 -4 3 -17 -4 -27 -15 -10 -11 -24 -17 -32 -14 -8 3 -21
-3 -28 -12 -14 -19 -18 -6 -8 21 3 9 10 13 15 10 14 -8 40 16 32 30 -5 8 -3 8
8 -1 15 -12 41 0 50 22 2 6 7 9 12 8 4 -2 7 3 7 11 0 15 52 46 79 46 13 0 13
2 2 9 -15 10 6 20 60 26 16 2 33 6 37 9 4 2 32 7 62 11 30 4 57 8 59 10 1 2
37 2 78 -1 60 -3 81 -9 103 -27z m2440 -245 c0 -5 -8 -16 -18 -25 -16 -15 -19
-15 -30 3 -12 19 -12 19 41 29 4 0 7 -3 7 -7z m-2810 -13 c0 -6 7 -8 16 -5 23
9 54 -12 54 -37 0 -18 2 -19 10 -7 5 8 10 10 10 5 0 -6 11 -22 24 -36 16 -18
21 -30 15 -40 -6 -10 -9 -10 -9 -1 0 6 -8 12 -17 12 -9 0 -36 10 -61 21 -38
19 -43 25 -37 47 5 22 4 24 -20 20 -19 -4 -25 -2 -21 8 3 7 0 15 -7 18 -7 2 0
5 16 5 15 1 27 -4 27 -10z m2757 -25 c-9 -9 -27 6 -27 22 0 13 2 13 16 -1 9
-9 14 -18 11 -21z m408 -84 c3 -5 1 -10 -4 -10 -6 0 -11 5 -11 10 0 6 2 10 4
10 3 0 8 -4 11 -10z m-3268 -112 c-3 -8 -6 -5 -6 6 -1 11 2 17 5 13 3 -3 4
-12 1 -19z m2793 -91 c0 -5 -4 -5 -10 -2 -5 3 -10 14 -10 23 0 15 2 15 10 2 5
-8 10 -19 10 -23z m297 -9 c-3 -8 -6 -5 -6 6 -1 11 2 17 5 13 3 -3 4 -12 1
-19z m-207 2 c0 -5 -4 -10 -9 -10 -5 0 -18 -3 -28 -6 -16 -6 -16 -5 2 9 23 19
35 21 35 7z m-280 -24 c0 -3 -4 -8 -10 -11 -5 -3 -10 -1 -10 4 0 6 5 11 10 11
6 0 10 -2 10 -4z m-97 -12 c-7 -3 -9 -12 -6 -20 3 -8 -1 -14 -11 -14 -9 0 -16
6 -16 14 0 14 15 24 35 24 6 0 5 -2 -2 -4z m-1793 -58 c0 -11 -19 -15 -25 -6
-3 5 1 10 9 10 9 0 16 -2 16 -4z m2546 -325 c-4 -5 0 -12 6 -14 7 -3 -2 -6
-20 -6 -20 -1 -31 3 -27 9 4 6 10 8 15 5 5 -3 11 -1 15 5 3 5 8 10 11 10 3 0
3 -4 0 -9z m-229 -47 c-3 -3 -12 -4 -19 -1 -8 3 -5 6 6 6 11 1 17 -2 13 -5z"/>
<path d="M2775 7550 c-3 -5 -1 -10 4 -10 6 0 11 5 11 10 0 6 -2 10 -4 10 -3 0
-8 -4 -11 -10z"/>
<path d="M2841 7364 c0 -11 3 -14 6 -6 3 7 2 16 -1 19 -3 4 -6 -2 -5 -13z"/>
<path d="M3515 6640 c3 -5 11 -10 16 -10 6 0 7 5 4 10 -3 6 -11 10 -16 10 -6
0 -7 -4 -4 -10z"/>
<path d="M3318 6613 c7 -3 16 -2 19 1 4 3 -2 6 -13 5 -11 0 -14 -3 -6 -6z"/>
<path d="M6660 7510 c0 -5 5 -10 11 -10 5 0 7 5 4 10 -3 6 -8 10 -11 10 -2 0
-4 -4 -4 -10z"/>
<path d="M6575 7411 c-4 -14 -2 -27 5 -35 10 -8 11 -8 6 1 -3 6 -1 13 6 15 8
3 8 9 1 23 -10 17 -11 17 -18 -4z"/>
<path d="M6530 7259 c0 -11 4 -18 10 -14 5 3 7 12 3 20 -7 21 -13 19 -13 -6z"/>
<path d="M6530 7200 c0 -5 5 -10 10 -10 6 0 10 5 10 10 0 6 -4 10 -10 10 -5 0
-10 -4 -10 -10z"/>
<path d="M6106 6855 c25 -19 35 -19 28 0 -4 8 -16 15 -27 15 -20 0 -20 0 -1
-15z"/>
<path d="M3815 10640 c-3 -5 -2 -10 4 -10 5 0 13 5 16 10 3 6 2 10 -4 10 -5 0
-13 -4 -16 -10z"/>
<path d="M3627 9983 c-3 -5 1 -14 9 -21 12 -11 14 -9 14 8 0 20 -14 27 -23 13z"/>
<path d="M3660 9941 c0 -5 7 -12 16 -15 24 -9 27 -7 10 9 -17 17 -26 19 -26 6z"/>
<path d="M6556 8873 c-6 -14 -5 -15 5 -6 7 7 10 15 7 18 -3 3 -9 -2 -12 -12z"/>
<path d="M2410 8240 c0 -11 5 -20 10 -20 6 0 10 9 10 20 0 11 -4 20 -10 20 -5
0 -10 -9 -10 -20z"/>
<path d="M2389 8163 c-13 -16 -12 -17 4 -4 9 7 17 15 17 17 0 8 -8 3 -21 -13z"/>
<path d="M3196 8013 c-6 -14 -5 -15 5 -6 7 7 10 15 7 18 -3 3 -9 -2 -12 -12z"/>
<path d="M6575 7880 c-3 -5 -2 -10 4 -10 5 0 13 5 16 10 3 6 2 10 -4 10 -5 0
-13 -4 -16 -10z"/>
<path d="M2927 7776 c-4 -10 0 -12 14 -9 10 3 16 9 13 14 -8 13 -21 11 -27 -5z"/>
<path d="M4661 7678 c-1 -21 4 -28 17 -28 11 0 13 3 6 8 -7 4 -14 16 -17 27
-4 15 -5 14 -6 -7z"/>
<path d="M2129 7388 c-5 -21 -10 -233 -7 -275 2 -22 23 -39 32 -25 2 4 9 27
16 52 6 25 18 60 26 77 13 29 13 39 0 82 -19 66 -34 91 -51 91 -8 0 -15 -1
-16 -2z"/>
<path d="M6960 7086 c0 -9 7 -16 16 -16 9 0 14 5 12 12 -6 18 -28 21 -28 4z"/>
<path d="M6965 7028 c-8 -43 0 -346 9 -356 4 -3 9 4 13 16 4 15 13 22 32 23
22 0 23 2 7 8 -16 6 -17 8 -4 13 13 5 14 16 7 59 -5 29 -6 56 -3 60 2 4 0 10
-6 14 -5 3 -9 23 -9 43 0 51 -3 72 -12 72 -4 0 -10 -6 -12 -12 -4 -8 -6 -7 -6
4 -1 9 4 18 11 20 9 3 8 13 -4 38 l-16 34 -7 -36z"/>
<path d="M7059 7013 c-13 -16 -12 -17 4 -4 16 13 21 21 13 21 -2 0 -10 -8 -17
-17z"/>
<path d="M6495 6520 c3 -5 10 -10 16 -10 5 0 9 5 9 10 0 6 -7 10 -16 10 -8 0
-12 -4 -9 -10z"/>
<path d="M2330 6503 c0 -11 7 -20 15 -20 8 0 15 4 15 7 0 4 -7 13 -15 20 -12
10 -15 9 -15 -7z"/>
<path d="M3688 6423 c6 -2 18 -2 25 0 6 3 1 5 -13 5 -14 0 -19 -2 -12 -5z"/>
<path d="M4090 6420 c0 -5 7 -10 15 -10 8 0 15 5 15 10 0 6 -7 10 -15 10 -8 0
-15 -4 -15 -10z"/>
<path d="M3718 6403 c7 -3 16 -2 19 1 4 3 -2 6 -13 5 -11 0 -14 -3 -6 -6z"/>
<path d="M5160 6272 c0 -7 -15 -13 -32 -13 -25 -1 -27 -3 -10 -6 15 -3 22 -10
18 -18 -3 -9 0 -12 9 -9 13 5 28 44 20 53 -3 2 -5 -1 -5 -7z"/>
<path d="M5215 6240 c-3 -5 -1 -10 4 -10 6 0 11 5 11 10 0 6 -2 10 -4 10 -3 0
-8 -4 -11 -10z"/>
<path d="M6681 6234 c0 -11 3 -14 6 -6 3 7 2 16 -1 19 -3 4 -6 -2 -5 -13z"/>
<path d="M5390 6231 c0 -4 -28 -9 -62 -10 -35 -2 -79 -5 -98 -7 -19 -3 -44 -5
-55 -5 -10 0 -25 -5 -33 -12 -23 -19 -40 -17 -35 4 3 10 0 19 -6 19 -6 0 -11
-5 -11 -11 0 -5 -5 -7 -11 -3 -8 4 -9 -1 -4 -17 4 -13 4 -21 0 -17 -5 5 -14
-1 -22 -12 -8 -11 -24 -19 -36 -19 -17 1 -18 2 -4 6 24 6 22 23 -4 23 -11 0
-17 5 -14 10 3 6 1 10 -4 10 -6 0 -11 -7 -11 -15 0 -21 -38 -19 -44 3 -6 18
-36 27 -36 11 0 -4 -14 -4 -32 1 -31 9 -48 3 -71 -25 -6 -6 -10 -6 -14 3 -2 6
-12 12 -20 12 -9 0 -14 -3 -10 -6 3 -4 0 -12 -7 -20 -11 -11 -20 -11 -47 -1
-19 7 -37 17 -41 22 -5 6 -8 5 -8 -3 0 -9 -8 -9 -34 2 -24 10 -33 11 -30 3 7
-21 -11 -37 -34 -30 -12 3 -22 9 -22 14 0 9 -4 9 -162 14 -100 2 -110 1 -140
-21 -18 -14 -38 -35 -45 -47 -6 -12 -19 -22 -29 -22 -11 0 -18 -8 -19 -23 -1
-12 2 -22 7 -22 16 0 7 -36 -12 -48 -17 -10 -23 -10 -36 3 -20 20 -38 19 -30
-1 3 -9 6 -28 6 -43 0 -27 35 -78 50 -74 5 1 14 -4 20 -13 11 -12 10 -13 -6
-9 -11 4 -9 0 6 -8 14 -9 27 -11 30 -7 6 10 29 8 50 -5 8 -5 26 -9 40 -9 16
-1 24 -6 22 -15 -2 -9 4 -12 18 -8 15 4 20 0 20 -16 0 -12 5 -29 11 -37 9 -12
10 -12 5 3 -3 10 -1 27 4 38 9 15 15 17 30 9 10 -5 26 -7 36 -3 12 4 15 3 10
-5 -5 -8 -2 -10 9 -6 8 4 21 2 28 -4 6 -5 21 -12 32 -15 11 -2 -1 -5 -27 -6
-27 0 -48 -6 -48 -11 0 -6 12 -8 28 -5 15 3 20 2 12 -2 -18 -7 -40 -29 -40
-38 0 -3 9 -3 20 0 11 4 20 2 20 -4 0 -6 7 -11 16 -11 8 0 12 5 9 10 -3 6 0
10 8 10 8 0 17 -11 19 -25 3 -14 1 -25 -3 -25 -5 0 -9 -5 -9 -11 0 -7 11 -4
26 6 15 9 23 12 20 6 -4 -6 -2 -11 3 -11 6 0 11 -6 11 -14 0 -23 31 -28 51 -9
40 40 48 44 46 24 -1 -11 -6 -17 -14 -14 -9 4 -11 0 -7 -11 3 -9 10 -13 15
-10 5 3 6 -3 2 -12 -4 -11 4 -26 26 -45 31 -27 60 -29 62 -5 0 6 4 1 9 -11 6
-15 15 -21 30 -18 13 2 20 -1 20 -11 0 -8 5 -14 10 -14 6 0 10 5 10 10 0 16
30 11 37 -6 3 -8 12 -13 19 -10 8 3 14 0 15 -7 0 -7 4 -3 8 7 6 15 17 19 54
18 74 -1 77 -1 77 -12 0 -6 -12 -8 -26 -6 -21 4 -24 3 -14 -10 10 -11 9 -14
-8 -14 -12 0 -24 5 -27 10 -10 16 -26 11 -23 -6 2 -11 -5 -18 -19 -19 -12 -1
-20 2 -18 6 8 12 -28 20 -39 9 -13 -13 -59 -13 -51 0 9 15 -17 38 -37 32 -11
-2 -18 1 -18 9 -1 10 -4 9 -14 -3 -14 -19 -81 -23 -102 -7 -8 7 -10 2 -6 -16
3 -19 0 -25 -13 -25 -15 0 -15 -2 -1 -15 8 -8 24 -15 35 -15 12 0 21 -6 21
-16 0 -8 5 -12 10 -9 6 3 10 1 10 -5 0 -6 -10 -14 -22 -19 -17 -6 -24 -4 -29
7 -5 14 -6 13 -12 -1 -3 -9 -2 -17 3 -17 6 0 10 -4 10 -9 0 -9 -187 -7 -196 2
-6 6 43 57 56 57 5 0 12 5 16 11 8 14 -38 1 -47 -13 -3 -5 -21 -11 -40 -14
-30 -4 -32 -3 -14 8 28 16 48 38 42 44 -2 3 -12 -2 -20 -11 -20 -19 -28 -19
-21 0 4 8 1 15 -5 15 -6 0 -11 -7 -11 -16 0 -25 -27 -46 -50 -39 -13 4 -31 0
-47 -11 -17 -10 -28 -13 -31 -6 -2 7 -12 6 -30 -4 -15 -8 -34 -14 -43 -14 -9
0 -28 -9 -42 -20 -14 -11 -30 -20 -36 -20 -6 0 -11 -5 -11 -11 0 -5 -4 -8 -9
-5 -5 3 -14 -1 -21 -9 -7 -8 -18 -15 -26 -15 -7 0 -28 -13 -46 -30 -18 -16
-38 -30 -46 -30 -7 0 -10 -5 -6 -12 5 -7 3 -8 -6 -3 -7 4 -16 2 -20 -5 -4 -6
-24 -12 -43 -13 -20 0 -39 -7 -41 -14 -8 -21 -25 -15 -19 7 4 15 0 20 -15 20
-11 0 -23 6 -25 13 -4 10 -6 10 -6 0 -1 -7 -9 -13 -18 -13 -16 0 -16 2 -3 11
11 7 5 9 -25 6 -22 -2 -50 1 -63 6 -34 15 -48 -4 -27 -36 19 -30 6 -44 -26
-26 -19 9 -21 9 -16 -4 3 -9 -1 -18 -9 -21 -16 -6 -20 -56 -4 -56 6 0 10 -5
10 -11 0 -6 -8 -9 -18 -7 -13 4 -18 -1 -20 -17 -2 -24 -46 -78 -72 -88 -9 -3
-10 -6 -2 -6 17 -1 16 -51 -2 -51 -10 0 -12 -7 -9 -22 5 -23 5 -23 -10 -3 -16
20 -16 19 -17 -8 0 -18 -4 -26 -11 -21 -6 3 -9 15 -6 25 3 12 0 19 -9 19 -8 0
-11 -6 -8 -15 4 -8 3 -36 -1 -61 -5 -38 -10 -46 -34 -50 -27 -6 -42 -43 -18
-45 7 0 3 -4 -8 -9 -16 -7 -16 -9 -4 -9 18 -1 35 -31 18 -31 -6 0 -7 -5 -3
-11 3 -6 14 -9 24 -6 23 6 50 -10 50 -30 0 -13 3 -13 15 -3 8 7 15 19 15 27 0
19 30 29 40 13 11 -17 32 -2 26 18 -6 19 20 59 31 48 4 -4 3 -10 -2 -14 -13
-9 -17 -32 -6 -32 5 0 12 7 15 16 4 10 14 14 25 11 15 -3 18 -1 14 11 -5 12
-2 14 11 9 10 -4 22 -7 27 -7 6 0 8 -4 4 -9 -3 -5 -1 -12 5 -16 6 -4 10 5 10
20 0 14 4 24 9 21 5 -3 11 1 15 9 4 10 -1 15 -16 15 -16 0 -19 3 -11 11 8 8
17 8 32 0 24 -13 62 1 58 22 -1 7 4 11 11 9 6 -1 12 5 12 13 0 8 7 15 15 15 9
0 15 -9 15 -25 0 -14 5 -25 10 -25 6 0 10 7 10 15 0 17 35 21 45 5 4 -6 10 -8
15 -5 5 3 18 1 29 -4 14 -8 21 -8 24 2 3 7 6 4 6 -6 1 -10 5 -16 10 -13 5 3
20 -8 33 -25 24 -29 26 -29 31 -8 3 12 10 18 17 14 6 -4 9 -9 6 -12 -3 -3 1
-12 9 -20 8 -8 20 -22 27 -31 8 -9 22 -22 32 -28 28 -15 44 -45 29 -51 -7 -3
-13 -12 -13 -21 0 -15 2 -15 10 -2 9 13 11 13 20 0 8 -12 10 -12 10 5 1 19 1
19 14 2 18 -24 73 -42 89 -29 18 14 61 -4 53 -24 -3 -8 -2 -12 3 -9 5 3 12 1
16 -5 9 -14 28 -12 22 3 -3 7 5 13 19 13 16 1 21 -2 17 -14 -5 -12 -1 -14 20
-10 16 3 37 -2 53 -13 15 -9 34 -15 42 -11 10 3 13 1 8 -6 -10 -16 27 -24 59
-12 14 5 31 8 36 4 5 -3 41 -7 79 -10 63 -4 69 -2 63 13 -6 15 -4 16 8 6 12
-10 18 -10 27 -1 7 7 12 8 12 2 0 -6 14 -11 30 -11 17 0 30 4 30 8 0 5 12 4
28 -2 28 -12 163 -18 156 -8 -4 6 33 49 42 49 4 0 4 -6 1 -14 -7 -17 28 -28
60 -20 11 3 30 1 42 -5 15 -9 21 -9 21 -1 0 15 42 8 56 -9 8 -10 16 -11 28 -4
10 5 17 13 16 18 -1 4 9 13 21 19 12 6 21 15 20 19 -2 10 25 37 37 37 6 0 12
-7 16 -15 7 -20 33 -19 45 3 6 9 11 13 11 7 0 -5 4 -4 9 4 13 20 20 -1 9 -29
-7 -20 -11 -22 -18 -10 -8 13 -10 12 -10 -2 0 -10 4 -18 10 -18 5 0 12 -11 16
-25 3 -13 9 -24 13 -23 3 1 18 -4 32 -9 49 -21 71 -20 80 4 6 17 5 21 -7 16
-7 -3 -14 -10 -14 -16 0 -8 -3 -8 -11 0 -12 12 -3 37 11 28 5 -3 11 -1 15 4 3
6 13 7 22 4 9 -4 21 1 29 12 8 10 14 15 14 9 0 -5 5 -2 10 6 8 12 10 9 10 -13
0 -18 4 -26 11 -21 6 3 16 0 21 -7 7 -10 7 -7 3 9 -7 24 12 32 21 8 6 -15 44
-10 44 7 0 5 9 2 20 -8 11 -10 20 -23 20 -28 0 -6 -6 -2 -14 8 -13 18 -14 17
-20 -11 -4 -16 -18 -37 -32 -47 -23 -17 -27 -18 -43 -3 -24 22 -34 20 -21 -4
7 -14 7 -20 0 -20 -5 0 -10 5 -10 11 0 15 -51 62 -58 54 -4 -3 -2 -9 3 -13 14
-9 39 -64 37 -78 -2 -7 8 -9 23 -6 14 2 22 8 19 13 -9 15 16 10 32 -6 18 -17
10 -35 -14 -35 -15 0 -15 2 -2 10 13 9 13 10 0 10 -8 -1 -23 -12 -33 -25 -17
-24 -17 -25 2 -25 14 0 19 -5 15 -15 -4 -9 0 -15 8 -15 7 0 15 -11 16 -24 2
-25 -26 -43 -55 -38 -7 2 -14 -7 -14 -20 -1 -17 -3 -18 -6 -5 -2 9 -8 17 -13
17 -5 0 -11 -8 -13 -17 -3 -10 -5 -1 -6 20 -1 43 -25 78 -35 51 -3 -8 -2 -12
4 -9 6 3 10 3 11 -2 0 -4 2 -18 3 -31 2 -18 -1 -22 -15 -19 -10 3 -20 -2 -23
-10 -4 -10 -12 -13 -24 -8 -32 13 -76 15 -89 4 -8 -8 -13 -8 -13 -1 0 11 -17
11 -35 1 -5 -4 -20 -5 -32 -4 -14 1 -19 -3 -16 -12 4 -9 9 -10 17 -3 9 7 19 5
32 -5 18 -13 17 -14 -14 -15 -20 0 -35 -6 -38 -15 -4 -8 -10 -15 -16 -15 -5 0
-7 4 -3 9 3 6 -11 13 -32 16 -21 3 -46 8 -55 10 -12 2 -18 -3 -18 -15 0 -13
-6 -17 -19 -13 -10 2 -25 -2 -33 -10 -8 -9 -30 -15 -49 -15 -42 1 -89 -11 -89
-23 0 -17 -21 -9 -45 19 -13 15 -25 21 -25 15 0 -7 5 -13 12 -13 9 0 9 -3 1
-11 -9 -9 -16 -8 -27 3 -8 9 -12 18 -9 22 4 3 2 6 -3 6 -12 0 -42 -20 -30 -20
5 0 -1 -9 -14 -20 -13 -11 -37 -20 -56 -20 -18 0 -41 -3 -51 -6 -15 -5 -15 -4
-3 5 12 8 8 11 -17 11 -22 0 -33 -5 -33 -14 0 -8 -15 -17 -36 -21 -24 -4 -38
-13 -41 -26 -5 -20 -23 -27 -23 -9 0 6 -6 10 -14 10 -8 0 -16 7 -20 15 -3 9
-18 15 -36 15 -16 0 -30 5 -30 10 0 11 -37 13 -104 4 -33 -5 -46 -11 -46 -23
0 -14 -2 -14 -10 -1 -6 9 -13 11 -17 5 -14 -17 -43 -18 -37 0 3 8 1 15 -5 15
-6 0 -11 -6 -11 -12 -1 -7 -6 -4 -13 8 -14 24 -64 28 -86 6 -7 -7 -20 -11 -28
-8 -8 3 -23 1 -33 -4 -16 -9 -18 -8 -13 6 5 14 2 16 -20 10 -16 -4 -27 -2 -27
4 0 5 12 11 28 11 16 1 20 3 10 6 -10 2 -18 11 -18 19 0 11 -6 13 -19 9 -11
-3 -26 1 -35 10 -13 14 -16 14 -16 2 0 -8 -9 -17 -20 -20 -15 -4 -20 0 -21 16
-1 17 -2 18 -6 5 -5 -21 -23 -24 -23 -5 -1 18 -30 -24 -30 -44 0 -26 -48 -31
-71 -6 -10 11 -19 25 -19 29 0 5 -4 6 -10 3 -6 -4 -7 1 -3 11 5 14 7 14 17 -4
10 -18 12 -19 26 -4 13 14 12 15 -3 9 -11 -4 -17 -1 -17 8 0 8 -4 15 -10 15
-5 0 -10 7 -10 15 0 8 -9 15 -20 15 -11 0 -20 -4 -20 -9 0 -14 -32 -23 -43
-12 -7 7 -1 14 17 21 32 12 32 44 1 46 -29 2 -77 23 -97 41 -12 11 -18 12 -18
4 0 -7 -4 -10 -9 -7 -5 4 -12 0 -14 -6 -3 -7 -6 -3 -6 10 -1 12 -5 22 -11 22
-5 0 -10 7 -10 15 0 8 5 15 10 15 6 0 10 6 10 13 0 6 -13 -3 -29 -20 -26 -30
-50 -45 -36 -24 3 5 2 12 -3 15 -10 6 -37 -10 -38 -24 -4 -31 -6 -33 -16 -10
-6 14 -12 31 -14 39 -1 8 -10 21 -19 30 -14 14 -17 14 -25 1 -5 -8 -10 -19
-10 -25 0 -5 4 -4 9 4 13 21 28 5 29 -31 0 -21 -2 -27 -7 -19 -5 8 -14 10 -21
6 -7 -4 -13 1 -17 13 -3 12 -16 22 -35 26 -21 4 -28 10 -25 21 4 8 2 17 -3 20
-6 4 -10 1 -10 -5 0 -8 -9 -10 -27 -5 -23 5 -25 4 -14 -9 8 -9 21 -16 29 -16
13 0 12 -3 -4 -15 -10 -8 -29 -15 -41 -15 -21 0 -23 5 -23 54 0 30 -5 58 -11
62 -8 5 -10 -1 -7 -20 6 -29 -9 -36 -18 -8 -15 46 -16 47 -27 17 -5 -16 -15
-33 -20 -37 -6 -3 -11 -18 -13 -34 -3 -31 -22 -47 -44 -38 -8 4 -21 7 -27 7
-7 0 -18 15 -24 34 -6 19 -22 41 -35 50 -13 8 -24 22 -24 30 0 10 -6 13 -16 9
-17 -7 -57 21 -49 34 2 4 -8 21 -23 39 -20 24 -32 31 -45 25 -12 -4 -17 -13
-14 -25 3 -11 1 -17 -4 -13 -5 3 -9 15 -10 27 0 19 -2 18 -11 -7 -8 -21 -13
-25 -19 -15 -6 10 -9 3 -10 -21 -3 -49 2 -94 10 -100 3 -3 14 -34 23 -70 16
-61 16 -66 1 -78 -14 -10 -14 -12 -2 -13 8 -1 17 -1 22 0 4 0 7 -3 7 -9 0 -5
-12 -11 -27 -11 -24 -2 -25 -2 -5 -6 17 -3 21 -9 16 -27 -3 -15 2 -28 15 -40
24 -22 28 -51 7 -43 -8 3 -18 -5 -25 -19 -15 -34 -15 -34 20 -34 25 0 30 3 25
18 -5 14 -4 14 9 -2 12 -16 12 -22 2 -28 -8 -5 -3 -8 13 -9 14 -1 28 -1 33 0
11 2 8 -9 -7 -25 -13 -12 -16 -12 -24 2 -9 16 -10 15 -16 -3 -4 -11 -4 -28 0
-37 4 -11 1 -16 -10 -16 -9 0 -16 -7 -16 -15 0 -8 -6 -15 -14 -15 -7 0 -19 -6
-25 -13 -9 -11 0 -14 47 -16 31 -1 75 -6 97 -12 33 -9 37 -13 24 -23 -14 -10
-14 -15 8 -49 17 -27 30 -37 51 -38 l27 -1 -25 -7 c-17 -5 -21 -9 -12 -15 6
-4 16 -5 21 -1 5 3 12 1 16 -5 4 -6 -8 -10 -29 -10 -27 0 -36 4 -37 18 0 9 -5
3 -10 -14 -13 -44 -59 -58 -59 -18 0 10 -7 13 -24 8 -17 -4 -25 -1 -30 12 -6
16 -8 16 -16 4 -6 -8 -10 -23 -10 -33 0 -10 -7 -25 -15 -33 -8 -9 -15 -23 -15
-32 0 -12 3 -13 8 -5 4 7 22 12 39 10 30 -2 37 -17 7 -17 -21 0 -17 -18 7 -25
26 -8 53 16 54 47 0 12 5 23 12 25 8 3 11 -5 8 -24 -2 -15 -4 -38 -4 -50 -1
-13 -6 -23 -12 -23 -6 0 -9 7 -5 15 3 8 1 15 -5 15 -5 0 -12 -6 -15 -13 -3 -8
-16 -12 -33 -9 -16 2 -32 -1 -35 -7 -5 -7 5 -11 28 -11 30 0 37 -4 42 -25 4
-14 9 -24 12 -21 3 3 11 1 19 -5 10 -9 13 -8 13 5 0 9 4 16 9 16 10 0 25 -50
16 -58 -3 -3 -5 2 -5 11 0 10 -4 17 -10 17 -5 0 -10 -8 -10 -17 0 -15 -2 -14
-15 3 -8 11 -15 14 -15 7 0 -18 -20 -16 -20 2 0 8 -8 15 -17 15 -15 0 -16 2
-3 10 12 8 10 10 -8 10 -13 0 -20 -4 -17 -10 3 -5 1 -10 -5 -10 -6 0 -9 -4 -5
-9 3 -6 -3 -14 -12 -20 -16 -9 -16 -10 5 -11 12 0 22 -4 22 -10 0 -5 -8 -9
-17 -7 -10 1 -19 -2 -20 -8 -1 -5 9 -8 24 -7 16 3 23 0 19 -7 -7 -11 23 -60
37 -61 4 0 25 -18 47 -40 27 -28 37 -45 33 -60 -4 -16 -2 -19 12 -14 13 5 14
9 3 15 -7 5 -8 9 -2 9 6 0 21 -11 34 -25 20 -21 22 -29 13 -43 -6 -9 -20 -16
-32 -15 -12 2 -21 -2 -21 -8 0 -7 11 -9 25 -6 18 3 29 -1 36 -14 8 -15 6 -19
-7 -19 -10 0 -14 -3 -11 -6 3 -4 2 -15 -3 -24 -11 -20 -2 -82 10 -75 5 3 10 0
12 -5 4 -14 69 8 84 28 9 12 13 6 22 -31 15 -60 9 -75 -29 -69 -24 3 -28 1
-23 -12 3 -9 10 -16 16 -16 5 0 6 5 3 10 -4 7 3 9 22 4 56 -12 63 -16 63 -30
0 -10 -5 -12 -12 -7 -7 4 -30 9 -50 10 -32 2 -36 0 -33 -18 4 -17 0 -19 -30
-13 -31 5 -33 4 -28 -15 4 -15 1 -21 -11 -21 -9 0 -16 -4 -16 -10 0 -5 7 -10
15 -10 8 0 15 -5 15 -10 0 -6 14 0 31 12 16 12 25 24 19 26 -6 2 -20 -4 -31
-14 -10 -9 -19 -12 -19 -7 0 20 25 31 68 30 29 0 42 -4 42 -13 0 -8 5 -14 10
-14 6 0 10 7 10 15 0 8 4 15 9 15 5 0 7 -10 3 -22 -3 -14 -1 -19 6 -14 6 3 13
2 17 -4 4 -6 10 -8 15 -5 5 3 11 1 15 -5 4 -6 -5 -10 -19 -10 -29 0 -33 -14
-12 -36 22 -22 34 -17 42 19 6 27 8 29 14 13 4 -14 9 -16 14 -8 4 7 19 10 34
7 15 -3 21 -2 15 1 -22 10 -14 22 17 26 27 4 30 2 30 -24 0 -15 -4 -28 -9 -28
-5 0 -7 10 -5 23 3 12 -2 7 -11 -12 -8 -19 -13 -39 -11 -45 2 -6 5 -3 5 7 1 9
8 17 17 17 15 0 44 -23 44 -34 0 -12 -28 -6 -33 7 -3 6 -6 2 -6 -10 -1 -14 -7
-20 -18 -19 -10 2 -21 -2 -25 -8 -5 -7 -8 -3 -9 9 -1 17 -2 16 -9 -5 -8 -24
-8 -24 -9 -2 -1 19 -5 21 -26 16 -19 -5 -25 -2 -25 10 0 19 -50 23 -51 4 0 -7
-4 -4 -9 7 -8 18 -9 18 -10 -5 -1 -23 -2 -23 -10 -5 l-9 20 -1 -20 c-1 -11 -4
-14 -7 -7 -8 20 -20 14 -25 -13 -4 -17 -1 -25 8 -25 8 0 13 -3 13 -7 -4 -24 4
-33 29 -33 21 0 24 2 12 10 -11 7 -5 10 24 10 33 0 37 -2 26 -15 -11 -13 -8
-15 20 -15 25 0 31 -3 26 -16 -3 -9 -6 -18 -6 -20 0 -2 -7 -4 -16 -4 -8 0 -12
5 -9 10 3 6 1 10 -5 10 -7 0 -10 -6 -7 -14 4 -9 -1 -17 -11 -19 -9 -3 -2 -4
17 -4 19 1 36 -3 38 -10 3 -7 -3 -9 -16 -6 -22 6 -28 -6 -12 -22 4 -6 11 -22
15 -37 5 -22 2 -27 -16 -30 -13 -2 -22 -9 -20 -17 1 -7 -3 -19 -9 -27 -12 -15
-8 -17 26 -15 l20 1 -20 -9 c-11 -5 -15 -10 -10 -10 6 -1 3 -6 -5 -11 -9 -6
-11 -13 -5 -17 13 -11 17 -53 5 -53 -6 0 -10 12 -10 26 0 14 -4 23 -10 19 -5
-3 -10 3 -10 13 0 23 -22 34 -47 25 -13 -4 -15 -3 -8 5 6 6 21 12 35 15 18 3
15 5 -13 6 -39 1 -60 -20 -39 -41 7 -7 6 -18 -4 -36 -11 -22 -11 -29 0 -42 7
-8 16 -22 19 -30 4 -10 6 -7 6 8 1 12 -3 22 -8 22 -5 0 -7 10 -4 21 5 18 7 19
15 5 5 -9 14 -16 19 -16 6 0 7 5 4 11 -10 15 26 7 45 -11 9 -8 15 -21 12 -27
-2 -7 1 -13 8 -13 9 0 11 -10 7 -30 -5 -20 -3 -30 6 -30 8 0 7 -4 -3 -10 -16
-11 -15 -11 17 -15 12 -1 20 1 18 6 -3 4 -2 9 2 12 5 2 2 2 -4 1 -7 -2 -13 0
-13 4 -1 4 -5 26 -9 50 -5 23 -4 42 0 42 5 0 9 -7 9 -15 0 -8 5 -15 10 -15 6
0 10 7 10 16 0 8 5 12 10 9 6 -4 10 -14 8 -24 -1 -9 10 -30 25 -46 15 -17 27
-34 26 -40 0 -5 -3 -4 -6 3 -2 6 -14 12 -26 11 -21 0 -21 -1 -2 -9 17 -7 17
-9 3 -9 -30 -1 -20 -21 11 -21 16 0 31 -6 34 -14 4 -9 14 -12 27 -9 15 4 19 2
15 -10 -4 -8 1 -17 9 -20 9 -4 16 -13 16 -22 0 -9 9 -15 25 -15 14 0 25 -5 25
-11 0 -7 -11 -9 -26 -6 -29 5 -20 -8 18 -27 16 -8 24 -22 26 -44 3 -35 28 -54
42 -33 5 9 10 4 14 -15 5 -20 10 -24 15 -15 5 7 6 23 3 35 -4 19 -2 18 17 -6
11 -14 21 -32 22 -40 1 -7 5 -2 9 12 6 18 8 20 9 7 1 -25 28 -51 34 -34 3 7 6
4 6 -6 1 -10 5 -16 10 -13 12 8 34 -21 26 -34 -3 -6 3 -10 15 -10 21 0 38 -25
25 -38 -4 -4 -10 -1 -12 6 -8 20 -20 14 -19 -10 1 -13 -5 -23 -13 -23 -8 0
-16 -6 -19 -13 -2 -7 2 -10 10 -7 8 3 23 -3 33 -15 10 -11 24 -20 32 -20 8 0
11 -5 8 -10 -3 -6 1 -10 10 -10 9 0 13 -4 10 -10 -3 -5 -1 -10 4 -10 6 0 10
-6 8 -12 -1 -7 3 -12 10 -11 12 3 9 -39 -4 -60 -3 -6 -1 -7 5 -3 7 4 12 13 12
21 0 8 8 19 18 24 9 6 12 11 6 11 -7 0 -15 7 -18 16 -5 13 -1 15 18 10 15 -4
26 -1 29 7 3 7 6 5 6 -5 1 -10 7 -18 15 -18 8 0 17 -8 19 -18 4 -15 5 -15 6 0
0 9 -3 20 -9 23 -5 3 -10 12 -10 18 1 7 8 3 18 -9 21 -25 66 -40 58 -19 -2 7
1 18 8 24 10 8 12 0 10 -42 -2 -28 -1 -44 2 -34 6 20 11 21 43 3 15 -8 20 -16
12 -20 -14 -9 -15 -46 -1 -46 6 0 10 6 11 13 1 14 17 -22 18 -40 1 -7 -3 -13
-9 -13 -5 0 -10 7 -10 15 0 8 -4 15 -10 15 -5 0 -10 -6 -10 -14 0 -8 -10 -18
-22 -22 -42 -13 -55 -39 -35 -71 6 -9 1 -13 -15 -14 -16 -1 -18 -3 -6 -6 9 -2
19 -16 21 -31 l4 -27 2 28 c1 27 21 39 21 12 0 -9 6 -12 15 -9 8 4 12 10 9 15
-3 5 4 9 15 9 11 0 22 4 25 9 3 4 -11 6 -30 4 -23 -2 -33 0 -29 7 3 5 -2 10
-12 11 -11 0 -8 4 9 9 36 11 96 6 110 -8 9 -9 7 -12 -10 -12 -12 0 -22 -4 -22
-10 0 -5 7 -7 15 -4 8 4 15 1 15 -5 0 -6 -16 -11 -35 -11 -19 0 -35 -5 -35
-11 0 -6 6 -9 13 -6 8 3 20 1 28 -4 10 -6 4 -9 -20 -9 -20 0 -40 -7 -50 -18
-11 -13 -29 -18 -63 -18 -25 1 -44 -2 -42 -6 5 -8 -24 -12 -56 -9 -13 2 -13 1
0 -8 8 -5 17 -8 21 -5 4 2 12 -3 19 -11 14 -17 56 -20 65 -4 5 6 13 3 22 -10
8 -12 22 -21 32 -21 9 0 22 -5 29 -12 9 -9 12 -9 12 2 1 11 3 11 11 -2 5 -10
18 -18 28 -18 9 0 26 -6 36 -14 17 -12 21 -12 32 3 12 14 13 14 7 0 -3 -10 1
-19 10 -22 9 -4 16 -1 16 6 1 7 6 5 14 -5 7 -10 20 -18 29 -18 8 0 17 -5 19
-10 2 -6 24 -11 51 -12 26 -1 47 -6 47 -11 0 -4 4 -6 9 -2 5 3 13 0 17 -6 4
-8 47 -9 141 -5 73 3 137 7 141 10 4 2 25 7 47 11 22 4 49 9 60 11 63 11 182
48 196 60 8 8 25 14 37 14 11 0 23 4 27 10 3 5 12 7 20 4 8 -3 20 -2 27 2 7 5
25 9 39 10 38 3 149 35 149 43 0 4 16 6 35 5 21 -2 33 1 30 6 -4 6 -2 10 4 10
5 0 20 4 33 9 13 5 25 8 28 7 3 0 21 9 41 22 20 12 44 22 53 22 9 0 15 5 13
11 -1 6 6 13 17 14 10 2 23 8 29 14 6 6 21 11 32 11 12 0 30 8 39 19 9 10 30
21 47 25 19 3 29 12 29 23 0 13 3 14 8 5 7 -10 15 -9 42 4 44 22 70 45 64 56
-3 5 -2 8 3 7 13 -3 73 22 73 30 0 4 16 13 35 21 19 7 37 22 41 32 3 10 12 18
20 18 8 0 14 5 14 10 0 6 6 10 13 10 7 0 25 11 40 26 15 14 32 22 39 18 7 -4
8 -3 4 4 -4 6 5 17 21 26 15 8 51 35 78 60 28 26 64 59 81 75 16 15 28 33 26
39 -2 7 3 12 12 12 8 0 27 11 42 25 25 23 38 29 57 26 4 0 7 4 7 11 0 6 3 8 6
5 11 -11 63 25 57 39 -2 7 4 18 15 25 11 7 18 19 15 26 -3 7 0 13 7 13 6 0 8
5 5 10 -10 17 71 120 94 120 6 0 7 7 4 17 -5 11 -3 14 6 8 15 -9 31 11 31 39
0 11 10 31 23 44 12 14 16 22 8 17 -7 -4 -12 -4 -9 1 2 5 13 28 23 51 10 24
22 43 27 43 4 0 8 11 8 24 0 14 4 27 10 31 5 3 7 12 4 20 -4 8 1 18 10 21 13
5 14 9 5 20 -9 11 -9 14 0 14 7 0 9 5 6 10 -4 6 -1 17 5 25 6 8 9 19 5 25 -4
6 -2 16 3 23 11 15 26 67 23 85 -1 6 3 12 8 12 6 0 8 7 4 16 -4 11 1 22 12 30
10 8 14 14 7 14 -8 0 -10 14 -6 43 3 23 6 75 7 114 1 40 5 73 10 73 4 0 7 7 7
15 0 8 -3 15 -7 15 -5 0 -8 17 -9 38 -1 70 -9 132 -17 132 -5 0 -6 4 -3 8 8
13 -12 82 -40 133 -13 26 -24 54 -24 63 0 10 -14 29 -31 44 -44 36 -215 122
-245 122 -33 0 -48 39 -40 109 4 34 2 58 -5 67 -7 9 -8 14 -1 14 6 0 10 36 9
95 0 61 -4 95 -11 95 -7 0 -6 3 1 8 12 8 11 41 -2 61 -3 5 -1 21 5 36 8 20 7
27 -5 32 -10 3 -12 9 -6 17 5 6 7 26 5 44 -2 22 0 31 7 26 8 -4 9 1 3 17 -4
13 -6 30 -5 37 5 34 4 49 -4 72 -7 22 -6 23 7 12 13 -11 16 -8 20 18 3 17 0
34 -5 37 -5 3 1 12 14 19 13 7 18 13 10 14 -16 0 -5 15 11 15 6 0 12 13 14 28
1 16 8 34 14 42 6 7 13 29 15 49 4 30 2 36 -14 36 -12 0 -23 -11 -30 -30 -10
-31 -31 -41 -31 -15 0 8 5 15 11 15 5 0 8 4 4 9 -10 17 36 40 66 34 19 -3 29
-1 29 6 0 7 -4 10 -9 6 -5 -3 -9 17 -8 47 1 31 7 53 15 56 6 2 10 -2 8 -10
-15 -47 -16 -68 -2 -68 9 0 13 11 13 33 -1 18 2 38 7 45 6 11 -4 16 -25 14 -4
-1 -5 8 -2 19 3 12 11 18 19 15 8 -3 14 1 14 9 0 8 -6 15 -12 15 -9 0 -8 4 2
10 13 8 12 10 -2 10 -10 0 -18 6 -18 14 0 7 -7 19 -15 26 -20 16 -10 30 21 30
14 0 22 4 19 10 -3 6 -15 10 -25 10 -25 0 -36 19 -20 33 10 9 14 9 17 0 6 -15
43 -17 43 -3 0 6 -7 10 -15 10 -8 0 -15 9 -15 20 0 12 -7 20 -17 20 -13 0 -14
3 -6 11 9 9 16 8 28 -5 22 -22 38 -20 30 4 -4 13 -2 20 7 21 7 1 -3 5 -22 9
l-35 7 40 2 c35 2 37 3 18 11 -13 5 -23 14 -23 20 0 5 -10 10 -22 11 -25 1
-19 4 25 13 23 6 27 11 23 29 -3 12 -3 16 0 10 3 -7 10 -13 15 -13 6 0 7 5 4
10 -12 20 -15 60 -5 60 7 0 9 14 6 38 -5 36 -5 36 6 -5 6 -24 15 -43 19 -43
11 0 11 14 -1 68 -8 33 -7 49 4 71 14 26 13 30 -5 50 -20 22 -20 23 -3 37 11
9 13 13 7 9 -7 -3 -14 -1 -14 4 -1 6 -3 16 -4 21 -1 6 -3 13 -4 18 -1 4 -6 0
-12 -8 -12 -17 -10 -9 14 42 9 20 21 39 27 43 14 9 12 21 -6 40 -16 15 -16 16
2 13 13 -2 19 3 19 17 0 11 4 23 9 27 5 3 -4 10 -21 15 -29 7 -30 10 -17 27 8
11 14 14 14 8 0 -7 5 -12 10 -12 6 0 10 7 10 15 0 8 -5 15 -11 15 -7 0 -9 10
-5 25 4 14 2 25 -4 25 -5 0 -10 -9 -10 -20 0 -13 -5 -18 -15 -14 -10 4 -15 0
-15 -11 0 -9 -4 -13 -10 -10 -5 3 -10 1 -10 -4 0 -6 6 -11 13 -12 6 0 3 -4 -8
-8 -11 -4 -27 -21 -36 -37 -14 -26 -21 -29 -60 -27 -30 1 -37 0 -21 -5 34 -10
32 -25 -5 -34 -18 -5 -33 -15 -33 -22 0 -9 -15 -15 -45 -18 -35 -2 -44 0 -40
11 4 10 -2 12 -25 8 -22 -5 -30 -3 -30 8 0 18 -36 20 -43 2 -3 -8 7 -19 25
-26 18 -8 27 -18 24 -27 -3 -8 1 -14 9 -14 18 0 20 -20 3 -21 -7 0 -2 -5 12
-11 l25 -10 -27 -12 c-22 -9 -25 -15 -16 -24 9 -9 8 -12 -4 -12 -8 0 -21 -7
-28 -15 -7 -8 -22 -15 -34 -16 -20 0 -21 -1 -1 -9 11 -5 15 -9 9 -9 -6 -1 -9
-12 -6 -26 3 -19 0 -25 -12 -25 -10 0 -14 5 -11 10 3 6 -1 10 -10 10 -13 0
-14 -4 -5 -20 6 -11 8 -25 5 -30 -3 -6 0 -10 8 -10 8 0 20 -7 27 -15 11 -13 8
-15 -17 -15 -23 0 -29 -5 -30 -22 -1 -12 3 -26 10 -30 8 -5 5 -8 -9 -8 -17 0
-20 -6 -20 -42 1 -43 -16 -67 -23 -33 -5 28 -26 44 -50 38 -15 -4 -21 -1 -21
11 0 9 8 16 18 17 12 0 10 3 -7 10 -19 8 -27 6 -33 -6 -5 -8 -15 -15 -23 -15
-8 0 -11 -7 -8 -20 4 -15 11 -18 28 -14 13 3 26 0 30 -7 5 -8 4 -10 -3 -5 -8
5 -12 -3 -12 -26 0 -19 4 -28 8 -21 4 7 13 9 19 5 15 -10 4 -62 -13 -62 -8 0
-14 -6 -14 -12 -1 -7 -7 -2 -14 11 -11 19 -14 21 -19 7 -7 -17 -37 -23 -37 -7
0 5 -3 16 -6 25 -4 11 -1 16 10 16 9 0 16 5 16 11 0 6 -7 9 -15 6 -8 -4 -17
-2 -20 3 -3 4 -1 10 3 12 11 4 25 59 15 57 -32 -5 -53 3 -53 21 0 11 -4 20 -9
20 -5 0 -12 7 -15 16 -4 11 -2 15 8 11 18 -7 15 52 -4 63 -17 10 3 22 25 14
12 -5 14 -14 10 -35 -6 -29 -6 -29 19 -17 23 10 26 17 24 49 -1 27 -7 39 -20
42 -12 4 -17 13 -16 28 2 15 -3 24 -12 25 -8 0 -9 -1 -2 -3 6 -3 12 -9 12 -14
0 -12 -21 -11 -39 0 -9 6 -22 6 -32 0 -13 -7 -19 -5 -22 9 -4 15 -5 15 -6 0
-2 -25 -45 -18 -70 12 l-22 25 12 -25 c12 -24 12 -24 -13 -8 -28 19 -40 15
-31 -10 4 -10 2 -13 -5 -8 -8 4 -10 -3 -7 -23 2 -22 0 -28 -10 -25 -8 3 -11
12 -9 19 4 10 -1 12 -15 8 -11 -3 -18 -9 -16 -14 3 -4 -5 -17 -17 -29 -19 -17
-24 -18 -33 -7 -5 8 -15 12 -22 10 -6 -2 -13 4 -16 14 -4 17 -5 17 -6 1 -1
-19 -31 -26 -31 -8 0 6 -9 10 -20 10 -11 0 -20 6 -20 13 0 8 -3 7 -10 -3 -8
-12 -11 -12 -28 3 -10 9 -23 17 -29 17 -5 0 -30 11 -54 23 -24 13 -61 29 -82
36 -20 7 -37 17 -37 22 0 6 -4 8 -9 5 -5 -3 -11 1 -15 9 -3 8 -17 15 -32 15
-14 0 -38 9 -54 20 -15 11 -30 17 -34 13 -3 -3 -6 3 -6 15 0 25 -4 26 -31 12
-13 -7 -19 -7 -19 0 0 5 -12 10 -27 11 l-28 1 30 9 c19 5 31 5 33 -1 5 -15 22
-12 22 4 0 17 59 29 95 20 15 -4 30 -2 34 3 9 14 61 25 61 13 0 -5 5 -10 11
-10 5 0 7 5 3 11 -5 8 3 10 24 7 l30 -4 -16 33 c-14 29 -14 36 -3 43 12 7 11
11 -2 25 -10 9 -17 12 -17 6 0 -6 -13 -11 -30 -11 -16 0 -30 5 -30 10 0 6 4
10 10 10 5 0 7 7 4 15 -4 8 -1 15 4 15 6 0 9 9 7 20 -2 13 2 20 11 20 8 0 14
8 14 18 0 12 -3 13 -8 5 -4 -7 -24 -16 -42 -19 l-35 -6 29 26 c19 17 37 24 52
22 13 -3 27 0 30 6 4 6 10 5 16 -3 7 -11 8 -9 6 6 -3 21 24 55 45 55 17 0 41
80 28 93 -7 7 -7 15 0 23 12 14 3 74 -11 74 -5 0 -6 25 -3 55 4 38 2 55 -6 55
-6 0 -11 -6 -11 -14 0 -23 -12 -25 -53 -13 -27 9 -37 18 -37 32 0 11 -13 32
-30 47 -16 14 -30 23 -30 19z m-760 -81 c0 -5 9 -6 20 -3 16 4 19 2 14 -12 -5
-13 -9 -14 -15 -3 -5 7 -9 9 -9 4 0 -6 -5 -5 -11 1 -6 6 -18 9 -25 6 -10 -3
-12 0 -8 10 6 15 34 13 34 -3z m440 0 c0 -5 -5 -10 -11 -10 -5 0 -7 5 -4 10 3
6 8 10 11 10 2 0 4 -4 4 -10z m470 -76 c0 -8 -5 -12 -10 -9 -6 4 -8 11 -5 16
9 14 15 11 15 -7z m-144 -91 c-11 -11 -17 4 -9 23 7 18 8 18 11 1 2 -10 1 -21
-2 -24z m65 14 c-9 -9 -51 -18 -51 -11 0 19 15 30 36 26 18 -3 22 -8 15 -15z
m-984 -193 c-3 -3 -12 -4 -19 -1 -8 3 -5 6 6 6 11 1 17 -2 13 -5z m243 -153
c0 -12 -20 -25 -27 -18 -7 7 6 27 18 27 5 0 9 -4 9 -9z m2005 -13 c0 -6 6 -13
14 -16 8 -3 11 0 7 7 -4 6 -1 11 8 11 9 0 16 -6 16 -13 0 -16 -37 -20 -47 -4
-10 16 -13 41 -5 32 4 -4 7 -12 7 -17z m-1645 -58 c0 -5 -4 -10 -10 -10 -5 0
-10 5 -10 10 0 6 5 10 10 10 6 0 10 -4 10 -10z m55 -10 c4 -6 11 -8 16 -5 5 3
6 -1 3 -9 -4 -10 -1 -16 7 -16 12 0 12 -2 1 -9 -13 -8 -62 26 -62 43 0 10 28
7 35 -4z m1586 -19 c6 10 9 4 9 -18 0 -17 -4 -35 -10 -38 -5 -3 -10 0 -10 7 0
7 -3 24 -5 38 -3 14 -2 19 1 11 5 -11 8 -11 15 0z m-1691 -31 c5 0 12 5 15 10
3 6 12 10 18 10 9 0 9 -2 0 -8 -6 -4 -11 -16 -10 -26 1 -10 -4 -21 -10 -23 -7
-3 -13 2 -13 11 0 8 -7 19 -16 24 -11 6 -14 14 -8 23 7 11 9 11 12 -3 2 -10 7
-18 12 -18z m1603 7 c3 -8 1 -20 -4 -28 -6 -10 -9 -7 -9 14 0 29 5 35 13 14z
m-123 -37 c0 -5 -8 -10 -17 -10 -15 0 -16 2 -3 10 19 12 20 12 20 0z m80 -42
c0 -5 -4 -8 -10 -8 -5 0 -9 4 -7 9 1 5 -2 9 -7 9 -13 0 -26 24 -19 35 6 9 42
-30 43 -45z m20 32 c0 -5 7 -7 15 -4 10 4 15 0 15 -15 0 -15 -6 -21 -21 -21
-11 0 -17 5 -14 10 3 6 1 10 -4 10 -6 0 -11 7 -11 15 0 8 5 15 10 15 6 0 10
-4 10 -10z m23 -57 c3 -5 -14 -9 -36 -10 -38 -1 -39 0 -12 7 42 11 43 11 48 3z
m-1893 -27 c0 -3 -4 -8 -10 -11 -5 -3 -10 -1 -10 4 0 6 5 11 10 11 6 0 10 -2
10 -4z m1805 -6 c-3 -5 -11 -10 -16 -10 -6 0 -7 5 -4 10 3 6 11 10 16 10 6 0
7 -4 4 -10z m-495 -70 c-6 -11 -13 -20 -16 -20 -2 0 0 9 6 20 6 11 13 20 16
20 2 0 0 -9 -6 -20z m40 -11 c0 -5 -4 -9 -10 -9 -5 0 -10 7 -10 16 0 8 5 12
10 9 6 -3 10 -10 10 -16z m580 1 c0 -5 -4 -10 -10 -10 -5 0 -10 5 -10 10 0 6
5 10 10 10 6 0 10 -4 10 -10z m-96 -29 c3 -5 -1 -11 -9 -14 -9 -4 -12 -1 -8 9
6 16 10 17 17 5z m93 -16 c14 -14 14 -18 -1 -34 -12 -13 -16 -30 -13 -52 2
-19 2 -25 0 -15 -4 15 -7 16 -13 5 -5 -7 -12 -10 -17 -6 -4 5 -2 11 5 16 6 4
11 23 11 42 -3 65 1 70 28 44z m-50 -27 c-3 -7 -5 -2 -5 12 0 14 2 19 5 13 2
-7 2 -19 0 -25z m-2962 -26 c-3 -3 -11 0 -18 7 -9 10 -8 11 6 5 10 -3 15 -9
12 -12z m3025 -7 c0 -8 -4 -15 -10 -15 -5 0 -10 7 -10 15 0 8 5 15 10 15 6 0
10 -7 10 -15z m17 -7 c-3 -8 -6 -5 -6 6 -1 11 2 17 5 13 3 -3 4 -12 1 -19z
m-317 2 c0 -5 -4 -10 -10 -10 -5 0 -10 5 -10 10 0 6 5 10 10 10 6 0 10 -4 10
-10z m313 -50 c3 -11 1 -23 -4 -26 -5 -3 -9 6 -9 20 0 31 6 34 13 6z m-338 -4
c-11 -8 -24 -12 -28 -9 -11 7 12 23 32 23 11 0 9 -4 -4 -14z m306 -26 c18 -15
20 -19 8 -20 -9 0 -26 9 -39 20 -31 27 -1 27 31 0z m-1879 -3 c9 -2 25 -10 35
-18 35 -31 44 -32 38 -7 -5 20 -2 24 22 26 21 1 24 -1 13 -8 -12 -8 -12 -10 3
-16 10 -4 23 -2 29 4 11 11 56 -3 70 -23 5 -6 8 -3 8 8 0 18 44 25 54 8 3 -5
14 -7 24 -4 21 5 82 -49 82 -72 0 -20 -42 -47 -54 -35 -14 14 -29 13 -20 -2 5
-8 2 -9 -9 -5 -9 3 -19 2 -22 -3 -4 -6 -15 -10 -27 -10 -15 0 -19 -5 -16 -18
4 -16 -1 -18 -36 -17 -23 1 -49 5 -59 10 -12 5 -22 2 -31 -10 -9 -12 -19 -15
-34 -11 -12 4 -20 11 -17 16 8 13 -13 23 -27 13 -24 -14 -48 -13 -48 2 0 8 -7
15 -15 15 -8 0 -15 -6 -15 -13 0 -9 -12 -12 -42 -9 -24 2 -60 3 -80 2 -21 0
-38 3 -38 8 0 5 -7 9 -16 9 -11 0 -14 -7 -12 -22 4 -19 2 -20 -19 -11 -13 6
-21 17 -18 24 2 6 0 12 -5 12 -6 0 -10 -6 -10 -12 0 -10 -2 -10 -8 -1 -4 6
-28 14 -54 18 -27 4 -48 12 -49 19 -5 80 -3 92 16 109 12 12 21 14 23 7 3 -7
13 -5 30 6 24 16 26 16 39 -2 7 -10 13 -12 13 -5 0 7 5 9 10 6 6 -3 10 -2 10
4 0 5 29 9 65 9 40 0 65 -4 65 -11 0 -6 8 -3 17 6 17 17 39 17 115 4z m1325
-23 c-3 -3 -12 -4 -19 -1 -8 3 -5 6 6 6 11 1 17 -2 13 -5z m523 -4 c0 -5 -4
-10 -10 -10 -5 0 -10 5 -10 10 0 6 5 10 10 10 6 0 10 -4 10 -10z m-171 -134
c-5 -6 -9 7 -8 35 l1 44 8 -35 c5 -20 5 -39 -1 -44z m162 34 c6 0 7 -5 4 -11
-4 -6 -10 -8 -13 -5 -3 3 -11 1 -17 -4 -9 -7 -16 -6 -25 5 -11 13 -10 14 5 9
14 -6 16 -4 10 6 -6 10 -4 12 9 7 10 -4 22 -7 27 -7z m-481 -20 c0 -5 -2 -10
-4 -10 -3 0 -8 5 -11 10 -3 6 -1 10 4 10 6 0 11 -4 11 -10z m478 -48 c2 -7 -3
-12 -12 -12 -9 0 -16 -4 -16 -10 0 -5 -6 -7 -14 -4 -12 5 -12 9 2 24 18 20 33
21 40 2z m-2441 2 c-3 -3 -12 -4 -19 -1 -8 3 -5 6 6 6 11 1 17 -2 13 -5z
m2300 -16 c-3 -8 -6 -5 -6 6 -1 11 2 17 5 13 3 -3 4 -12 1 -19z m133 -37 c0
-6 -4 -13 -10 -16 -5 -3 -10 1 -10 9 0 9 5 16 10 16 6 0 10 -4 10 -9z m-126
-47 c-5 13 -3 17 5 15 7 -3 12 -8 12 -12 -1 -4 -1 -14 -1 -22 0 -8 -6 -14 -12
-12 -18 3 -38 24 -38 38 0 7 8 5 20 -6 20 -18 21 -18 14 -1z m-54 -8 c0 -3 -4
-8 -10 -11 -5 -3 -10 -1 -10 4 0 6 5 11 10 11 6 0 10 -2 10 -4z m170 -27 c0
-6 -4 -7 -10 -4 -5 3 -10 11 -10 16 0 6 5 7 10 4 6 -3 10 -11 10 -16z m25 11
c3 -5 1 -10 -4 -10 -6 0 -11 5 -11 10 0 6 2 10 4 10 3 0 8 -4 11 -10z m-138
-62 c-3 -7 -5 -2 -5 12 0 14 2 19 5 13 2 -7 2 -19 0 -25z m143 28 c0 -3 -4 -8
-10 -11 -5 -3 -10 -1 -10 4 0 6 5 11 10 11 6 0 10 -2 10 -4z m-690 -36 c0 -5
-5 -10 -11 -10 -5 0 -7 5 -4 10 3 6 8 10 11 10 2 0 4 -4 4 -10z m60 -30 c0 -5
-4 -10 -10 -10 -5 0 -10 5 -10 10 0 6 5 10 10 10 6 0 10 -4 10 -10z m-33 -15
c8 -8 19 -13 24 -9 13 7 40 -21 30 -32 -4 -5 -2 -20 6 -34 13 -25 13 -25 19
-3 10 36 33 36 43 0 7 -24 9 -26 10 -10 2 41 21 35 21 -6 0 -23 -4 -41 -9 -41
-5 0 -16 -3 -25 -6 -11 -4 -16 -1 -16 10 0 9 -7 16 -15 16 -22 0 -15 -32 10
-47 16 -9 21 -9 27 5 5 14 7 12 7 -5 1 -19 -4 -23 -29 -23 -23 0 -28 -4 -23
-16 9 -23 -16 -35 -57 -27 -30 5 -33 4 -23 -8 14 -17 1 -45 -16 -35 -6 4 -9 2
-6 -6 4 -9 -2 -14 -15 -14 -13 0 -21 7 -22 21 0 11 -2 33 -3 48 -2 31 -19 47
-47 47 -10 0 -18 7 -18 16 0 10 6 14 14 11 23 -9 35 12 25 45 -10 35 1 62 39
96 30 26 29 26 49 7z m-297 -82 c0 -20 -24 -11 -28 10 -2 12 1 15 12 11 9 -3
16 -13 16 -21z m130 -54 c0 -5 -4 -9 -10 -9 -5 0 -10 7 -10 16 0 8 5 12 10 9
6 -3 10 -10 10 -16z m324 -49 c4 -25 3 -31 -4 -20 -5 8 -10 26 -10 39 0 32 6
24 14 -19z m-245 -49 l-1 -26 -10 29 c-8 21 -13 25 -19 15 -7 -11 -9 -11 -9 2
0 9 3 19 7 22 12 12 33 -15 32 -42z m645 41 c2 -4 1 -14 -3 -21 -6 -9 -10 -7
-14 8 -5 20 7 29 17 13z m-3604 -22 c0 -5 -4 -10 -10 -10 -5 0 -10 5 -10 10 0
6 5 10 10 10 6 0 10 -4 10 -10z m2900 -94 c0 -6 -7 -1 -15 10 -8 10 -15 23
-15 28 0 6 7 1 15 -10 8 -10 15 -23 15 -28z m17 12 c-3 -8 -6 -5 -6 6 -1 11 2
17 5 13 3 -3 4 -12 1 -19z m-2580 -100 c-3 -7 -5 -2 -5 12 0 14 2 19 5 13 2
-7 2 -19 0 -25z m357 -60 c-5 -8 -10 -5 -14 8 -10 25 0 41 12 20 5 -9 6 -21 2
-28z m-414 16 c0 -9 -5 -14 -12 -12 -18 6 -21 28 -4 28 9 0 16 -7 16 -16z
m2430 -78 c0 -3 -4 -8 -10 -11 -5 -3 -10 -1 -10 4 0 6 5 11 10 11 6 0 10 -2
10 -4z m-323 -32 c-3 -3 -12 -4 -19 -1 -8 3 -5 6 6 6 11 1 17 -2 13 -5z m-120
-56 c-3 -8 -6 -5 -6 6 -1 11 2 17 5 13 3 -3 4 -12 1 -19z m-1134 -17 c15 -16
27 -32 27 -35 0 -13 -49 -5 -64 10 -18 18 -18 17 -10 38 8 22 15 20 47 -13z
m-83 -27 c0 -8 -5 -12 -10 -9 -6 4 -8 11 -5 16 9 14 15 11 15 -7z m493 -11
c-7 -2 -21 -2 -30 0 -10 3 -4 5 12 5 17 0 24 -2 18 -5z m242 -53 c3 -5 1 -10
-4 -10 -6 0 -11 5 -11 10 0 6 2 10 4 10 3 0 8 -4 11 -10z m-1699 -77 c-3 -7
-2 -13 3 -13 9 0 23 -41 16 -48 -2 -2 -14 5 -26 17 -20 18 -24 19 -43 6 -11
-8 -34 -14 -51 -14 -17 1 -22 3 -12 6 9 2 17 11 17 19 0 8 9 14 20 14 11 0 20
-5 20 -10 0 -6 8 -5 21 2 15 10 19 21 16 42 -4 27 -3 28 10 10 7 -10 11 -24 9
-31z m47 -270 c-5 -11 -8 -12 -13 -2 -5 7 -6 19 -3 26 5 11 8 12 13 2 5 -7 6
-19 3 -26z m-76 -1 c-9 -2 -15 -7 -12 -11 2 -5 -7 -6 -22 -3 l-26 5 24 12 c12
7 30 10 38 7 14 -5 13 -7 -2 -10z m126 4 c12 -9 14 -16 8 -21 -6 -3 -11 -1
-11 4 0 18 -18 12 -23 -6 -3 -11 -5 -7 -6 10 -1 30 5 33 32 13z m3457 -46 c0
-5 9 -10 20 -10 11 0 20 -4 20 -10 0 -5 7 -10 15 -10 8 0 15 -4 15 -9 0 -5 8
-12 18 -14 9 -3 2 -5 -15 -6 -19 -1 -33 4 -33 11 0 6 -3 8 -7 4 -5 -4 1 -14
11 -22 18 -13 18 -14 2 -14 -10 0 -14 -5 -10 -11 4 -7 0 -10 -10 -7 -10 1 -16
7 -16 12 1 5 -3 12 -8 15 -14 9 -25 81 -12 81 5 0 10 -4 10 -10z m142 -95 c10
-13 22 -24 26 -22 4 1 8 -1 10 -5 5 -18 1 -28 -13 -28 -9 0 -15 9 -15 23 -1
21 -1 22 -15 3 -14 -18 -15 -18 -15 -2 0 9 -4 15 -8 12 -7 -4 -8 25 -3 42 3 8
16 -1 33 -23z m-62 -45 c0 -5 -2 -10 -4 -10 -3 0 -8 5 -11 10 -3 6 -1 10 4 10
6 0 11 -4 11 -10z m-3645 -80 c10 -11 16 -23 12 -26 -9 -9 -27 5 -27 22 0 8
-4 12 -10 9 -5 -3 -10 -1 -10 4 0 17 15 13 35 -9z m75 -6 c0 -8 -5 -12 -10 -9
-6 4 -8 11 -5 16 9 14 15 11 15 -7z m110 -14 c0 -5 -4 -10 -10 -10 -5 0 -10 5
-10 10 0 6 5 10 10 10 6 0 10 -4 10 -10z m-110 -92 c0 -6 -7 -5 -15 2 -8 7
-15 17 -15 22 0 6 7 5 15 -2 8 -7 15 -17 15 -22z m570 -29 c0 -5 -4 -9 -10 -9
-5 0 -10 7 -10 16 0 8 5 12 10 9 6 -3 10 -10 10 -16z m-465 -38 c7 -12 -12
-24 -25 -16 -11 7 -4 25 10 25 5 0 11 -4 15 -9z m54 -81 c0 -10 -3 -8 -9 5
-12 27 -12 43 0 25 5 -8 9 -22 9 -30z m-79 -10 c0 -5 -7 -10 -16 -10 -8 0 -12
5 -9 10 3 6 10 10 16 10 5 0 9 -4 9 -10z m-20 -20 c10 -6 11 -10 3 -10 -7 0
-13 -7 -13 -15 0 -8 5 -15 11 -15 5 0 8 -4 4 -10 -11 -18 -32 1 -33 30 -1 32
4 35 28 20z m63 -27 c-7 -2 -21 -2 -30 0 -10 3 -4 5 12 5 17 0 24 -2 18 -5z
m187 -23 c0 -5 -4 -10 -10 -10 -5 0 -10 5 -10 10 0 6 5 10 10 10 6 0 10 -4 10
-10z m-62 -65 c-5 -25 5 -34 17 -15 3 6 11 10 18 10 6 0 1 -10 -11 -22 -18
-18 -24 -20 -31 -10 -8 13 -3 62 6 62 3 0 3 -11 1 -25z m122 3 c0 -16 -3 -19
-11 -11 -6 6 -8 16 -5 22 11 17 16 13 16 -11z m-33 -40 c-3 -8 -6 -5 -6 6 -1
11 2 17 5 13 3 -3 4 -12 1 -19z m-81 -33 c-28 -30 -46 -32 -46 -6 0 14 8 21
28 24 15 2 30 5 34 6 4 0 -3 -10 -16 -24z m62 0 c-3 -3 -9 2 -12 12 -6 14 -5
15 5 6 7 -7 10 -15 7 -18z m208 -29 c16 -12 16 -15 4 -20 -44 -15 -69 -10 -63
14 6 23 31 26 59 6z m24 -36 c-8 -5 -11 -10 -6 -10 5 0 3 -7 -4 -15 -7 -8 -18
-15 -24 -15 -6 0 -4 5 4 10 10 6 11 10 3 10 -19 0 -16 18 5 23 30 8 37 7 22
-3z m-140 -10 c0 -5 -2 -10 -4 -10 -3 0 -8 5 -11 10 -3 6 -1 10 4 10 6 0 11
-4 11 -10z m330 -15 c0 -14 5 -25 10 -25 6 0 10 -4 10 -10 0 -5 -7 -7 -15 -4
-8 4 -15 17 -15 29 0 13 -6 26 -12 28 -8 3 -6 6 5 6 12 1 17 -7 17 -24z m-145
5 c3 -5 -1 -10 -9 -10 -9 0 -16 5 -16 10 0 6 4 10 9 10 6 0 13 -4 16 -10z m30
-32 c-5 -20 -11 -24 -31 -20 -28 5 -32 22 -5 22 10 0 22 7 25 16 10 25 18 10
11 -18z m26 5 c-8 -15 -10 -15 -11 -2 0 17 10 32 18 25 2 -3 -1 -13 -7 -23z
m30 0 c-8 -15 -10 -15 -11 -2 0 17 10 32 18 25 2 -3 -1 -13 -7 -23z m109 -47
c0 -8 -4 -18 -10 -21 -5 -3 -10 3 -10 14 0 12 5 21 10 21 6 0 10 -6 10 -14z
m97 -22 c-3 -3 -12 -4 -19 -1 -8 3 -5 6 6 6 11 1 17 -2 13 -5z m-647 -18 c0
-2 -7 -6 -15 -10 -8 -3 -15 -1 -15 4 0 6 7 10 15 10 8 0 15 -2 15 -4z m580
-46 c0 -11 -1 -20 -3 -20 -1 0 -10 9 -20 20 -16 19 -16 20 3 20 13 0 20 -7 20
-20z m-500 -43 c0 -12 -5 -29 -10 -37 -7 -11 -10 -3 -10 28 0 26 4 41 10 37 6
-3 10 -16 10 -28z m113 -7 c3 -11 2 -20 -3 -20 -4 0 -10 9 -13 20 -3 11 -2 20
3 20 4 0 10 -9 13 -20z m520 0 c-3 -11 -10 -20 -15 -20 -5 0 -6 5 -2 11 3 6 0
15 -7 20 -11 7 -9 9 8 9 16 0 20 -5 16 -20z m-606 -42 c-3 -7 -5 -2 -5 12 0
14 2 19 5 13 2 -7 2 -19 0 -25z m13 -47 c0 -6 -4 -12 -8 -15 -5 -3 -9 1 -9 9
0 8 4 15 9 15 4 0 8 -4 8 -9z m44 -18 c4 -9 2 -21 -4 -27 -8 -8 -9 -6 -5 7 4
10 2 17 -4 17 -6 0 -11 5 -11 10 0 16 17 11 24 -7z m-81 -18 c9 2 17 0 17 -5
0 -14 -49 -8 -55 8 -4 11 -2 12 7 5 7 -6 21 -9 31 -8z m23 -50 c7 -30 7 -30
-23 -39 -17 -6 -23 -3 -23 9 0 9 4 14 9 11 5 -3 11 3 14 14 3 14 1 18 -6 13
-7 -4 -25 -8 -40 -8 -26 -1 -27 0 -11 12 10 7 30 13 46 13 21 0 29 -6 34 -25z
m120 -6 c3 -6 1 -16 -5 -22 -8 -8 -11 -8 -11 1 0 7 -10 17 -22 22 -22 8 -22 9
4 9 15 1 30 -4 34 -10z m-56 -69 c0 -5 -2 -10 -4 -10 -3 0 -8 5 -11 10 -3 6
-1 10 4 10 6 0 11 -4 11 -10z m-130 -10 c0 -5 -5 -10 -11 -10 -5 0 -7 5 -4 10
3 6 8 10 11 10 2 0 4 -4 4 -10z m-83 -6 c-3 -3 -12 -4 -19 -1 -8 3 -5 6 6 6
11 1 17 -2 13 -5z m253 -4 c0 -5 7 -10 16 -10 8 0 13 -4 9 -10 -3 -5 -12 -7
-20 -4 -16 7 -28 34 -15 34 6 0 10 -4 10 -10z m3220 -55 c0 -8 -4 -15 -10 -15
-5 0 -7 7 -4 15 4 8 8 15 10 15 2 0 4 -7 4 -15z m-3176 -10 c-4 -8 -8 -15 -10
-15 -2 0 -4 7 -4 15 0 8 4 15 10 15 5 0 7 -7 4 -15z m-51 -69 c15 -3 26 -10
22 -16 -8 -12 -35 -13 -35 -1 0 5 -11 8 -25 7 -20 -3 -23 0 -15 15 13 23 13
32 0 24 -6 -4 -10 6 -9 22 0 27 0 27 16 -9 12 -26 25 -38 46 -42z m-10 -63
c-7 -2 -21 -2 -30 0 -10 3 -4 5 12 5 17 0 24 -2 18 -5z m137 -108 c0 -7 -6
-18 -14 -22 -7 -4 -16 -15 -19 -23 -4 -10 -6 -7 -6 8 -1 12 4 22 9 22 6 0 10
7 10 15 0 8 5 15 10 15 6 0 10 -7 10 -15z m0 -65 c0 -5 -7 -10 -16 -10 -8 0
-12 5 -9 10 3 6 10 10 16 10 5 0 9 -4 9 -10z m340 -164 c0 -9 -9 -14 -21 -13
-19 1 -19 2 -3 14 22 16 24 16 24 -1z m1780 -17 c0 -6 -4 -7 -10 -4 -5 3 -10
11 -10 16 0 6 5 7 10 4 6 -3 10 -11 10 -16z m129 -13 c-12 -13 -34 8 -25 23 5
8 11 7 21 -2 8 -7 10 -16 4 -21z m51 4 c0 -5 -2 -10 -4 -10 -3 0 -8 5 -11 10
-3 6 -1 10 4 10 6 0 11 -4 11 -10z m-20 -31 c0 -5 -4 -9 -10 -9 -5 0 -10 7
-10 16 0 8 5 12 10 9 6 -3 10 -10 10 -16z m-1974 -14 c8 -32 -1 -56 -19 -50
-8 4 -12 18 -9 40 5 41 19 46 28 10z m1871 -7 c-3 -7 -5 -2 -5 12 0 14 2 19 5
13 2 -7 2 -19 0 -25z m50 26 c-3 -3 -12 -4 -19 -1 -8 3 -5 6 6 6 11 1 17 -2
13 -5z m-2020 -23 c-1 -16 -4 -17 -15 -9 -10 9 -11 13 0 19 17 11 17 12 15
-10z m124 -14 c-8 -8 -11 -7 -11 4 0 20 13 34 18 19 3 -7 -1 -17 -7 -23z m79
12 c0 -5 -4 -9 -10 -9 -5 0 -10 7 -10 16 0 8 5 12 10 9 6 -3 10 -10 10 -16z
m-35 -9 c3 -5 1 -10 -4 -10 -6 0 -11 5 -11 10 0 6 2 10 4 10 3 0 8 -4 11 -10z
m1940 -20 c3 -5 1 -10 -4 -10 -6 0 -11 5 -11 10 0 6 2 10 4 10 3 0 8 -4 11
-10z m-201 -25 c-4 -8 -8 -15 -10 -15 -2 0 -4 7 -4 15 0 8 4 15 10 15 5 0 7
-7 4 -15z m279 -2 c-6 -16 -47 -28 -63 -18 -19 12 8 34 40 33 19 -1 27 -5 23
-15z m-896 -25 c-3 -8 -6 -5 -6 6 -1 11 2 17 5 13 3 -3 4 -12 1 -19z m587 6
c8 -21 8 -21 -8 -27 -10 -4 -13 2 -12 19 1 27 11 31 20 8z m66 -6 c0 6 8 12
18 11 10 0 12 -3 5 -6 -7 -2 -13 -15 -13 -27 0 -15 -6 -22 -20 -22 -21 0 -27
11 -10 19 6 3 5 4 -2 3 -7 -1 -14 -14 -16 -28 -2 -15 -10 -29 -18 -32 -12 -4
-12 -2 -4 14 6 11 8 25 5 30 -3 6 -2 10 3 10 6 0 13 12 16 26 7 25 8 26 21 8
8 -11 14 -14 15 -6z m80 -16 c13 -12 13 -13 0 -10 -16 3 -39 28 -40 42 0 6 6
3 13 -5 6 -8 19 -20 27 -27z m-1760 -6 c0 -3 -4 -8 -10 -11 -5 -3 -10 -1 -10
4 0 6 5 11 10 11 6 0 10 -2 10 -4z m1760 -33 c0 -12 -3 -14 -8 -7 -4 7 -18 14
-32 17 -21 4 -20 4 8 6 24 1 32 -3 32 -16z m-132 -34 c14 7 23 8 27 1 3 -5 1
-10 -5 -10 -7 0 -9 -8 -5 -19 3 -12 0 -21 -10 -25 -9 -3 -15 0 -15 9 0 8 -5
15 -10 15 -6 0 -22 8 -37 17 -23 15 -24 17 -7 23 12 4 23 1 30 -8 8 -11 15
-12 32 -3z m-1511 -31 c-3 -8 -6 -5 -6 6 -1 11 2 17 5 13 3 -3 4 -12 1 -19z
m1258 13 c3 -5 1 -12 -5 -16 -5 -3 -10 1 -10 9 0 18 6 21 15 7z m-405 -21 c0
-5 -7 -7 -15 -4 -8 4 -15 8 -15 10 0 2 7 4 15 4 8 0 15 -4 15 -10z m370 -5 c0
-8 -4 -15 -9 -15 -5 0 -11 7 -15 15 -3 9 0 15 9 15 8 0 15 -7 15 -15z m85 -5
c3 -5 1 -10 -4 -10 -6 0 -11 5 -11 10 0 6 2 10 4 10 3 0 8 -4 11 -10z m-908
-32 c-3 -7 -5 -2 -5 12 0 14 2 19 5 13 2 -7 2 -19 0 -25z m-377 14 c0 -13 -12
-22 -22 -16 -10 6 -1 24 13 24 5 0 9 -4 9 -8z m220 -2 c0 -5 -4 -10 -10 -10
-5 0 -10 5 -10 10 0 6 5 10 10 10 6 0 10 -4 10 -10z m719 -22 c-1 -16 -3 -18
-6 -6 -2 9 -12 19 -21 21 -12 3 -10 5 6 6 17 1 22 -4 21 -21z m-994 2 c3 -5 1
-10 -4 -10 -6 0 -11 5 -11 10 0 6 2 10 4 10 3 0 8 -4 11 -10z m82 -12 c-3 -8
-6 -5 -6 6 -1 11 2 17 5 13 3 -3 4 -12 1 -19z m1276 7 c-3 -9 -8 -14 -10 -11
-3 3 -2 9 2 15 9 16 15 13 8 -4z m159 -7 c-7 -7 -12 -8 -12 -2 0 14 12 26 19
19 2 -3 -1 -11 -7 -17z m-1453 -25 c-1 -21 -4 -29 -6 -19 -4 13 -7 15 -13 7
-5 -9 -9 -6 -13 8 -3 14 0 21 9 21 8 0 14 5 14 10 0 6 2 10 5 10 3 0 4 -17 4
-37z m111 22 c0 -8 -4 -15 -10 -15 -5 0 -10 7 -10 15 0 8 5 15 10 15 6 0 10
-7 10 -15z m1215 5 c3 -5 -1 -10 -10 -10 -9 0 -13 5 -10 10 3 6 8 10 10 10 2
0 7 -4 10 -10z m-1428 -16 c-3 -3 -12 -4 -19 -1 -8 3 -5 6 6 6 11 1 17 -2 13
-5z m553 -34 c0 -5 -5 -10 -11 -10 -5 0 -7 5 -4 10 3 6 8 10 11 10 2 0 4 -4 4
-10z m540 6 c0 -2 -7 -6 -15 -10 -8 -3 -15 -1 -15 4 0 6 7 10 15 10 8 0 15 -2
15 -4z m-960 -32 c0 -8 -8 -14 -17 -14 -14 0 -15 2 -4 9 8 5 10 14 6 21 -5 9
-4 11 3 6 7 -4 12 -14 12 -22z m395 -2 c-3 -3 -11 0 -18 7 -9 10 -8 11 6 5 10
-3 15 -9 12 -12z m-332 1 c-7 -2 -21 -2 -30 0 -10 3 -4 5 12 5 17 0 24 -2 18
-5z m-53 -45 c0 -16 -3 -19 -11 -11 -6 6 -8 16 -5 22 11 17 16 13 16 -11z
m104 -13 c3 -8 1 -15 -4 -15 -6 0 -10 7 -10 15 0 8 2 15 4 15 2 0 6 -7 10 -15z
m-179 -53 c-6 -7 -34 11 -29 19 3 5 11 3 19 -4 7 -6 12 -13 10 -15z m-190 -2
c3 -5 -1 -10 -10 -10 -9 0 -13 5 -10 10 3 6 8 10 10 10 2 0 7 -4 10 -10z"/>
<path d="M4415 5000 c-4 -6 -11 -8 -16 -5 -5 4 -9 2 -9 -3 0 -6 20 -10 45 -9
30 0 45 5 45 14 0 15 -56 18 -65 3z"/>
<path d="M3565 2850 c3 -5 11 -10 16 -10 6 0 7 5 4 10 -3 6 -11 10 -16 10 -6
0 -7 -4 -4 -10z"/>
<path d="M5980 1650 c0 -5 5 -10 10 -10 6 0 10 5 10 10 0 6 -4 10 -10 10 -5 0
-10 -4 -10 -10z"/>
<path d="M4961 6184 c0 -11 3 -14 6 -6 3 7 2 16 -1 19 -3 4 -6 -2 -5 -13z"/>
<path d="M2971 6046 c-16 -19 -10 -51 9 -51 17 0 26 43 12 57 -5 5 -14 3 -21
-6z"/>
<path d="M4075 6030 c-3 -5 -1 -10 4 -10 6 0 11 5 11 10 0 6 -2 10 -4 10 -3 0
-8 -4 -11 -10z"/>
<path d="M6785 5780 c3 -5 8 -10 11 -10 2 0 4 5 4 10 0 6 -5 10 -11 10 -5 0
-7 -4 -4 -10z"/>
<path d="M5438 5700 c-7 -24 -3 -38 8 -28 3 4 4 17 2 30 l-3 23 -7 -25z"/>
<path d="M4400 5681 c0 -5 12 -13 28 -19 21 -7 31 -6 41 6 13 13 11 14 -13 8
-18 -4 -25 -3 -21 4 3 6 -3 10 -14 10 -12 0 -21 -4 -21 -9z"/>
<path d="M6625 5630 c-4 -6 2 -9 14 -7 29 4 39 17 13 17 -11 0 -24 -5 -27 -10z"/>
<path d="M4473 5454 c0 -16 6 -17 25 -5 11 6 9 9 -5 13 -12 3 -20 0 -20 -8z"/>
<path d="M4482 5388 c6 -16 58 -17 58 -1 0 8 -12 13 -31 13 -19 0 -29 -4 -27
-12z"/>
<path d="M6040 5390 c0 -5 5 -10 11 -10 5 0 7 5 4 10 -3 6 -8 10 -11 10 -2 0
-4 -4 -4 -10z"/>
<path d="M6247 5254 c-3 -3 -3 -12 0 -20 3 -8 -1 -14 -10 -14 -10 0 -15 -8
-14 -20 2 -24 10 -25 28 -4 21 25 17 79 -4 58z"/>
<path d="M6250 5159 c0 -5 5 -7 10 -4 6 3 10 8 10 11 0 2 -4 4 -10 4 -5 0 -10
-5 -10 -11z"/>
<path d="M6181 5074 c0 -11 3 -14 6 -6 3 7 2 16 -1 19 -3 4 -6 -2 -5 -13z"/>
<path d="M6718 5063 c7 -3 16 -2 19 1 4 3 -2 6 -13 5 -11 0 -14 -3 -6 -6z"/>
<path d="M6750 4986 c0 -2 7 -9 15 -16 9 -7 15 -8 15 -2 0 5 -7 12 -15 16 -8
3 -15 4 -15 2z"/>
<path d="M3720 4760 c0 -5 10 -10 23 -10 18 0 19 2 7 10 -19 13 -30 13 -30 0z"/>
<path d="M2880 4721 c0 -6 4 -13 10 -16 6 -3 7 1 4 9 -7 18 -14 21 -14 7z"/>
<path d="M2806 4533 c5 -5 12 -12 16 -18 4 -6 8 -2 8 8 0 9 -7 17 -17 17 -9 0
-12 -3 -7 -7z"/>
<path d="M2840 4525 c0 -8 4 -15 9 -15 5 0 11 7 15 15 3 9 0 15 -9 15 -8 0
-15 -7 -15 -15z"/>
<path d="M2800 4485 c0 -11 -3 -31 -5 -45 -3 -14 -3 -19 1 -12 3 6 10 10 15 6
12 -7 11 37 -1 56 -8 12 -10 12 -10 -5z"/>
<path d="M4968 4463 c7 -3 16 -2 19 1 4 3 -2 6 -13 5 -11 0 -14 -3 -6 -6z"/>
<path d="M5698 4453 c6 -2 18 -2 25 0 6 3 1 5 -13 5 -14 0 -19 -2 -12 -5z"/>
<path d="M3277 4419 c7 -7 15 -10 18 -7 3 3 -2 9 -12 12 -14 6 -15 5 -6 -5z"/>
<path d="M5615 4390 c-3 -5 1 -10 10 -10 9 0 13 5 10 10 -3 6 -8 10 -10 10 -2
0 -7 -4 -10 -10z"/>
<path d="M3520 4370 c0 -6 -9 -14 -19 -18 -19 -7 -19 -8 -2 -29 12 -14 22 -18
31 -13 11 7 11 11 -1 26 -9 11 -9 15 -1 10 8 -5 12 0 12 13 0 12 -4 21 -10 21
-5 0 -10 -5 -10 -10z"/>
<path d="M2825 4290 c-3 -5 -1 -10 4 -10 6 0 11 5 11 10 0 6 -2 10 -4 10 -3 0
-8 -4 -11 -10z"/>
<path d="M3295 4290 c-3 -5 3 -10 15 -10 12 0 18 5 15 10 -3 6 -10 10 -15 10
-5 0 -12 -4 -15 -10z"/>
<path d="M5561 4274 c0 -11 3 -14 6 -6 3 7 2 16 -1 19 -3 4 -6 -2 -5 -13z"/>
<path d="M5650 4271 c0 -6 4 -13 10 -16 6 -3 7 1 4 9 -7 18 -14 21 -14 7z"/>
<path d="M5530 4233 c0 -10 4 -24 9 -31 7 -11 9 -11 14 2 7 19 -1 46 -14 46
-5 0 -9 -8 -9 -17z"/>
<path d="M5247 4179 c7 -7 15 -10 18 -7 3 3 -2 9 -12 12 -14 6 -15 5 -6 -5z"/>
<path d="M2790 4160 c0 -19 11 -26 23 -14 8 8 -3 34 -14 34 -5 0 -9 -9 -9 -20z"/>
<path d="M4991 4144 c0 -11 3 -14 6 -6 3 7 2 16 -1 19 -3 4 -6 -2 -5 -13z"/>
<path d="M2795 4110 c-3 -5 -1 -10 4 -10 6 0 11 5 11 10 0 6 -2 10 -4 10 -3 0
-8 -4 -11 -10z"/>
<path d="M2830 4095 c0 -15 6 -25 14 -25 19 0 27 25 13 39 -18 18 -27 13 -27
-14z"/>
<path d="M4870 4079 c0 -5 5 -7 10 -4 6 3 10 8 10 11 0 2 -4 4 -10 4 -5 0 -10
-5 -10 -11z"/>
<path d="M2898 3955 c2 -14 6 -25 8 -25 2 0 4 11 4 25 0 14 -4 25 -9 25 -4 0
-6 -11 -3 -25z"/>
<path d="M2881 3924 c0 -11 3 -14 6 -6 3 7 2 16 -1 19 -3 4 -6 -2 -5 -13z"/>
<path d="M2826 3871 c-3 -5 1 -11 9 -14 9 -4 12 -1 8 9 -6 16 -10 17 -17 5z"/>
<path d="M2797 3813 c-4 -3 -7 -11 -7 -17 0 -6 5 -5 12 2 6 6 9 14 7 17 -3 3
-9 2 -12 -2z"/>
<path d="M2880 3809 c0 -5 5 -7 10 -4 6 3 10 8 10 11 0 2 -4 4 -10 4 -5 0 -10
-5 -10 -11z"/>
<path d="M2952 3803 c-9 -4 -10 -9 -2 -18 8 -9 6 -14 -5 -19 -8 -3 -15 -1 -15
4 0 5 -9 8 -20 7 -23 -2 -25 -10 -6 -26 8 -7 12 -21 9 -31 -7 -26 9 -26 27 0
8 11 21 20 28 20 10 0 12 6 7 18 -4 9 -7 25 -7 35 0 9 0 17 -1 16 -1 0 -8 -3
-15 -6z"/>
<path d="M2245 3750 c-3 -5 -1 -10 4 -10 6 0 11 5 11 10 0 6 -2 10 -4 10 -3 0
-8 -4 -11 -10z"/>
<path d="M2880 3732 c0 -10 -6 -24 -12 -32 -7 -8 -3 -6 9 4 12 10 19 24 16 32
-7 19 -13 18 -13 -4z"/>
<path d="M2855 3650 c-3 -5 -1 -10 4 -10 6 0 11 5 11 10 0 6 -2 10 -4 10 -3 0
-8 -4 -11 -10z"/>
<path d="M2581 3304 c0 -11 3 -14 6 -6 3 7 2 16 -1 19 -3 4 -6 -2 -5 -13z"/>
<path d="M3070 3180 c0 -5 4 -10 9 -10 6 0 13 5 16 10 3 6 -1 10 -9 10 -9 0
-16 -4 -16 -10z"/>
<path d="M2975 3090 c-3 -5 -1 -10 4 -10 6 0 11 5 11 10 0 6 -2 10 -4 10 -3 0
-8 -4 -11 -10z"/>
<path d="M3008 3093 c7 -3 16 -2 19 1 4 3 -2 6 -13 5 -11 0 -14 -3 -6 -6z"/>
<path d="M3041 3084 c0 -11 3 -14 6 -6 3 7 2 16 -1 19 -3 4 -6 -2 -5 -13z"/>
<path d="M2931 3014 c0 -11 3 -14 6 -6 3 7 2 16 -1 19 -3 4 -6 -2 -5 -13z"/>
<path d="M3183 2987 c-13 -5 -23 -14 -23 -19 0 -5 -9 -6 -20 -3 -11 4 -20 2
-20 -4 0 -6 -4 -11 -10 -11 -5 0 -10 7 -10 15 0 21 -18 19 -22 -2 -5 -28 3
-83 13 -83 5 0 8 3 8 8 -5 30 3 54 16 49 8 -4 17 -2 20 3 4 6 15 10 26 10 22
0 53 25 47 39 -2 4 -13 4 -25 -2z"/>
<path d="M3051 2944 c0 -11 3 -14 6 -6 3 7 2 16 -1 19 -3 4 -6 -2 -5 -13z"/>
<path d="M3031 2904 c0 -11 3 -14 6 -6 3 7 2 16 -1 19 -3 4 -6 -2 -5 -13z"/>
<path d="M3046 2875 c-3 -9 0 -15 9 -15 9 0 12 6 9 15 -4 8 -7 15 -9 15 -2 0
-5 -7 -9 -15z"/>
<path d="M3090 2854 c0 -8 5 -12 10 -9 6 3 10 10 10 16 0 5 -4 9 -10 9 -5 0
-10 -7 -10 -16z"/>
<path d="M2788 2803 c7 -3 16 -2 19 1 4 3 -2 6 -13 5 -11 0 -14 -3 -6 -6z"/>
<path d="M3221 2754 c0 -11 3 -14 6 -6 3 7 2 16 -1 19 -3 4 -6 -2 -5 -13z"/>
<path d="M3246 2755 c-3 -8 -1 -15 4 -15 6 0 10 7 10 15 0 8 -2 15 -4 15 -2 0
-6 -7 -10 -15z"/>
<path d="M3342 2731 c-11 -7 -11 -9 2 -14 10 -4 16 -1 16 8 0 17 -1 17 -18 6z"/>
<path d="M2930 2664 c0 -8 5 -12 10 -9 6 3 10 10 10 16 0 5 -4 9 -10 9 -5 0
-10 -7 -10 -16z"/>
<path d="M2985 2670 c3 -5 8 -10 11 -10 2 0 4 5 4 10 0 6 -5 10 -11 10 -5 0
-7 -4 -4 -10z"/>
<path d="M2955 2640 c4 -6 11 -8 16 -5 14 9 11 15 -7 15 -8 0 -12 -5 -9 -10z"/>
<path d="M2816 2612 c-3 -6 -1 -14 5 -17 14 -9 20 -2 10 14 -6 8 -11 9 -15 3z"/>
<path d="M3123 2583 c-21 -7 -15 -43 7 -43 13 0 18 5 14 15 -5 11 1 15 20 15
14 0 26 4 26 8 0 9 -46 12 -67 5z"/>
<path d="M3024 2563 c13 -4 15 -7 7 -13 -9 -5 -6 -9 8 -13 16 -4 21 0 21 14 0
14 -7 19 -27 18 -20 -1 -22 -3 -9 -6z"/>
<path d="M3170 2540 c0 -5 5 -10 10 -10 6 0 10 5 10 10 0 6 -4 10 -10 10 -5 0
-10 -4 -10 -10z"/>
<path d="M3220 2546 c0 -2 6 -9 14 -15 10 -9 15 -8 20 4 4 10 -1 15 -14 15
-11 0 -20 -2 -20 -4z"/>
<path d="M3260 2520 c0 -5 -6 -10 -14 -10 -12 0 -12 -7 -4 -36 5 -20 7 -45 5
-56 -4 -14 -2 -18 10 -14 8 3 19 6 24 6 6 0 8 4 5 9 -3 5 1 11 9 15 21 8 19
26 -2 21 -10 -3 -6 0 8 7 22 11 24 15 13 26 -12 10 -14 10 -14 -3 0 -8 -4 -15
-9 -15 -5 0 -9 6 -8 13 1 30 -4 47 -13 47 -5 0 -10 -4 -10 -10z"/>
<path d="M2930 2506 c0 -2 7 -7 16 -10 8 -3 12 -2 9 4 -6 10 -25 14 -25 6z"/>
<path d="M3125 2500 c3 -5 8 -10 11 -10 2 0 4 5 4 10 0 6 -5 10 -11 10 -5 0
-7 -4 -4 -10z"/>
<path d="M3061 2474 c0 -11 3 -14 6 -6 3 7 2 16 -1 19 -3 4 -6 -2 -5 -13z"/>
<path d="M3111 2454 c0 -11 3 -14 6 -6 3 7 2 16 -1 19 -3 4 -6 -2 -5 -13z"/>
<path d="M3142 2448 c-6 -6 -12 -21 -12 -32 0 -20 1 -19 16 2 18 26 15 49 -4
30z"/>
<path d="M3015 2440 c-3 -5 -1 -10 4 -10 6 0 11 5 11 10 0 6 -2 10 -4 10 -3 0
-8 -4 -11 -10z"/>
<path d="M3025 2418 c-11 -6 -22 -12 -24 -14 -7 -6 29 -54 40 -54 6 0 7 4 4
10 -3 5 1 20 9 32 27 38 14 50 -29 26z"/>
<path d="M3185 2420 c3 -5 8 -10 11 -10 2 0 4 5 4 10 0 6 -5 10 -11 10 -5 0
-7 -4 -4 -10z"/>
<path d="M3100 2410 c0 -5 5 -10 10 -10 6 0 10 5 10 10 0 6 -4 10 -10 10 -5 0
-10 -4 -10 -10z"/>
<path d="M3084 2391 c1 -17 26 -28 26 -11 0 6 -4 9 -9 5 -5 -3 -11 0 -14 7 -2
9 -4 8 -3 -1z"/>
<path d="M3178 2380 c-7 -24 -3 -38 8 -28 3 4 4 17 2 30 l-3 23 -7 -25z"/>
<path d="M3255 2250 c-3 -5 -1 -10 4 -10 6 0 11 5 11 10 0 6 -2 10 -4 10 -3 0
-8 -4 -11 -10z"/>
<path d="M3291 2244 c0 -11 3 -14 6 -6 3 7 2 16 -1 19 -3 4 -6 -2 -5 -13z"/>
<path d="M3241 2203 c0 -16 3 -22 6 -13 3 8 10 21 16 28 7 8 5 12 -7 12 -11 0
-16 -8 -15 -27z"/>
<path d="M3360 2121 c0 -6 5 -13 10 -16 6 -3 10 1 10 9 0 9 -4 16 -10 16 -5 0
-10 -4 -10 -9z"/>
<path d="M3675 1890 c-3 -5 -1 -10 4 -10 6 0 11 5 11 10 0 6 -2 10 -4 10 -3 0
-8 -4 -11 -10z"/>
<path d="M3746 1804 c-4 -14 -5 -29 -2 -31 3 -3 8 7 12 21 3 15 4 29 1 32 -2
3 -8 -7 -11 -22z"/>
<path d="M3714 1706 c-19 -15 -19 -15 1 -11 11 2 23 4 28 4 10 1 9 21 -1 21
-5 0 -17 -6 -28 -14z"/>
<path d="M3860 1590 c18 -12 30 -13 30 -2 0 4 -10 9 -22 9 -18 2 -20 0 -8 -7z"/>
<path d="M3978 1563 c7 -3 16 -2 19 1 4 3 -2 6 -13 5 -11 0 -14 -3 -6 -6z"/>
<path d="M4112 1530 c0 -14 2 -19 5 -12 2 6 2 18 0 25 -3 6 -5 1 -5 -13z"/>
<path d="M3846 1479 c-9 -13 -12 -29 -7 -41 12 -33 25 -25 29 20 4 47 0 51
-22 21z"/>
<path d="M3881 1484 c0 -11 3 -14 6 -6 3 7 2 16 -1 19 -3 4 -6 -2 -5 -13z"/>
<path d="M4090 1470 c0 -5 5 -10 10 -10 6 0 10 5 10 10 0 6 -4 10 -10 10 -5 0
-10 -4 -10 -10z"/>
<path d="M3953 1404 c-15 -16 -16 -24 -4 -24 8 0 24 30 19 35 -2 2 -9 -3 -15
-11z"/>
<path d="M6265 1410 c4 -6 11 -8 16 -5 14 9 11 15 -7 15 -8 0 -12 -5 -9 -10z"/>
<path d="M6200 1405 c0 -15 18 -40 24 -34 3 3 -1 14 -9 25 -8 10 -14 15 -15 9z"/>
<path d="M3880 1386 c0 -8 4 -17 9 -20 5 -4 7 3 4 14 -6 23 -13 26 -13 6z"/>
<path d="M4035 1390 c-3 -5 -1 -10 4 -10 6 0 11 5 11 10 0 6 -2 10 -4 10 -3 0
-8 -4 -11 -10z"/>
<path d="M3975 1369 c-11 -16 -2 -19 31 -10 31 10 31 10 -3 17 -12 2 -25 -1
-28 -7z"/>
<path d="M3996 1334 c-4 -9 -4 -19 -1 -22 3 -3 5 0 5 6 0 7 7 12 16 12 8 0 12
5 9 10 -9 15 -22 12 -29 -6z"/>
<path d="M3920 1299 c0 -5 5 -7 10 -4 6 3 10 8 10 11 0 2 -4 4 -10 4 -5 0 -10
-5 -10 -11z"/>
<path d="M6000 1240 c0 -11 -5 -20 -12 -20 -6 0 -9 -3 -5 -6 3 -3 11 -2 19 3
15 9 20 43 7 43 -5 0 -9 -9 -9 -20z"/>
<path d="M5873 1225 c-16 -18 -17 -45 -2 -45 6 0 9 6 6 14 -4 10 0 12 14 9 14
-4 19 0 19 16 0 24 -19 27 -37 6z"/>
<path d="M5750 1219 c-27 -11 -41 -29 -34 -41 8 -13 24 -9 24 7 0 8 6 12 14 9
8 -3 16 3 19 15 3 12 4 21 4 20 -1 0 -13 -5 -27 -10z"/>
<path d="M5802 1173 c-28 -41 -33 -61 -16 -67 8 -3 14 0 14 7 1 7 6 2 13 -10
12 -22 13 -22 25 -3 10 17 10 20 -5 20 -16 1 -17 2 -2 13 20 15 22 67 3 67 -7
0 -21 -12 -32 -27z"/>
<path d="M5550 1170 c0 -5 5 -10 11 -10 5 0 7 5 4 10 -3 6 -8 10 -11 10 -2 0
-4 -4 -4 -10z"/>
<path d="M5908 1163 c7 -3 16 -2 19 1 4 3 -2 6 -13 5 -11 0 -14 -3 -6 -6z"/>
<path d="M5710 1129 c0 -5 5 -7 10 -4 6 3 10 8 10 11 0 2 -4 4 -10 4 -5 0 -10
-5 -10 -11z"/>
<path d="M5750 1109 c0 -5 -4 -7 -10 -4 -14 9 -12 -1 3 -13 10 -8 13 -6 14 9
1 10 0 19 -3 19 -2 0 -4 -5 -4 -11z"/>
<path d="M5540 1100 c0 -5 5 -10 11 -10 5 0 7 5 4 10 -3 6 -8 10 -11 10 -2 0
-4 -4 -4 -10z"/>
<path d="M5793 1092 c-8 -5 -8 -13 0 -29 7 -12 17 -19 23 -15 14 10 -8 53 -23
44z"/>
<path d="M5680 1070 c0 -5 5 -10 11 -10 5 0 7 5 4 10 -3 6 -8 10 -11 10 -2 0
-4 -4 -4 -10z"/>
<path d="M5760 1024 c0 -8 5 -12 10 -9 6 3 10 10 10 16 0 5 -4 9 -10 9 -5 0
-10 -7 -10 -16z"/>
<path d="M5731 1014 c0 -11 3 -14 6 -6 3 7 2 16 -1 19 -3 4 -6 -2 -5 -13z"/>
<path d="M5603 1000 c-13 -10 -23 -23 -23 -29 0 -8 -6 -9 -19 -1 -13 7 -22 7
-26 0 -3 -5 -1 -10 5 -10 6 0 4 -7 -5 -16 -12 -13 -13 -19 -5 -24 9 -6 9 -9
-1 -12 -7 -2 -9 -9 -5 -17 6 -9 11 -8 22 6 11 14 13 15 14 3 1 -12 3 -12 14 2
7 10 16 15 19 11 4 -3 7 -1 7 5 0 7 7 12 15 12 8 0 15 3 16 8 0 4 2 14 3 22 2
8 0 25 -3 37 -6 21 -6 21 -28 3z m14 -52 c-3 -8 -6 -5 -6 6 -1 11 2 17 5 13 3
-3 4 -12 1 -19z"/>
<path d="M5460 880 c0 -11 2 -20 4 -20 2 0 6 9 9 20 3 11 1 20 -4 20 -5 0 -9
-9 -9 -20z"/>
<path d="M5270 870 c0 -5 5 -10 11 -10 5 0 7 5 4 10 -3 6 -8 10 -11 10 -2 0
-4 -4 -4 -10z"/>
<path d="M5485 870 c-3 -5 1 -10 9 -10 9 0 16 5 16 10 0 6 -4 10 -9 10 -6 0
-13 -4 -16 -10z"/>
<path d="M5392 859 c3 -8 1 -26 -3 -41 -8 -29 5 -39 15 -12 9 25 7 52 -5 60
-7 4 -10 1 -7 -7z"/>
<path d="M5420 845 c0 -8 4 -15 10 -15 5 0 7 7 4 15 -4 8 -8 15 -10 15 -2 0
-4 -7 -4 -15z"/>
<path d="M5356 805 c4 -8 8 -15 10 -15 2 0 4 7 4 15 0 8 -4 15 -10 15 -5 0 -7
-7 -4 -15z"/>
<path d="M4637 793 c-4 -3 -7 -16 -6 -27 0 -19 1 -19 10 3 10 24 8 36 -4 24z"/>
<path d="M5052 750 c0 -14 2 -19 5 -12 2 6 2 18 0 25 -3 6 -5 1 -5 -13z"/>
<path d="M4701 734 c0 -11 3 -14 6 -6 3 7 2 16 -1 19 -3 4 -6 -2 -5 -13z"/>
<path d="M5021 734 c0 -11 3 -14 6 -6 3 7 2 16 -1 19 -3 4 -6 -2 -5 -13z"/>
<path d="M4900 730 c-12 -7 -10 -9 7 -7 12 0 19 5 17 9 -6 10 -6 10 -24 -2z"/>
<path d="M4541 714 c0 -11 3 -14 6 -6 3 7 2 16 -1 19 -3 4 -6 -2 -5 -13z"/>
<path d="M4765 720 c-3 -5 -1 -10 4 -10 6 0 11 5 11 10 0 6 -2 10 -4 10 -3 0
-8 -4 -11 -10z"/>
<path d="M4621 684 c0 -11 3 -14 6 -6 3 7 2 16 -1 19 -3 4 -6 -2 -5 -13z"/>
<path d="M5010 690 c0 -5 5 -10 10 -10 6 0 10 5 10 10 0 6 -4 10 -10 10 -5 0
-10 -4 -10 -10z"/>
<path d="M4917 660 c-7 -28 -6 -32 9 -22 6 4 8 16 4 26 -6 18 -7 18 -13 -4z"/>
<path d="M4512 641 c-12 -10 -22 -22 -22 -27 0 -4 5 -3 12 4 8 8 15 9 25 1 9
-8 13 -8 13 0 0 6 -6 11 -12 11 -9 0 -8 3 2 10 8 5 12 11 9 15 -3 3 -16 -3
-27 -14z"/>
<path d="M5395 400 c-3 -5 -1 -10 4 -10 6 0 11 5 11 10 0 6 -2 10 -4 10 -3 0
-8 -4 -11 -10z"/>
<path d="M4975 320 c-3 -5 -1 -10 4 -10 6 0 11 5 11 10 0 6 -2 10 -4 10 -3 0
-8 -4 -11 -10z"/>
<path d="M328 283 c6 -65 10 -70 11 -15 0 28 -3 52 -7 52 -4 0 -6 -17 -4 -37z"/>
<path d="M4696 285 c-3 -8 -2 -15 3 -15 5 0 14 7 21 15 10 12 10 15 -3 15 -8
0 -17 -7 -21 -15z"/>
<path d="M4750 286 c0 -8 4 -18 10 -21 5 -3 7 0 4 9 -4 10 3 16 23 19 27 4 27
4 -4 6 -23 1 -33 -4 -33 -13z"/>
<path d="M4770 245 c-14 -16 -10 -18 14 -9 9 3 16 10 16 15 0 14 -16 11 -30
-6z"/>
<path d="M4828 253 c7 -3 16 -2 19 1 4 3 -2 6 -13 5 -11 0 -14 -3 -6 -6z"/>
<path d="M4695 230 c3 -5 8 -10 11 -10 2 0 4 5 4 10 0 6 -5 10 -11 10 -5 0 -7
-4 -4 -10z"/>
<path d="M321 184 c0 -11 3 -14 6 -6 3 7 2 16 -1 19 -3 4 -6 -2 -5 -13z"/>
</g>
</svg>
